<svg width="54" height="32" viewBox="0 0 54 32" fill="none" xmlns="http://www.w3.org/2000/svg">
<g clip-path="url(#clip0_4244_10743)">
<path d="M25.1733 24.5339C14.9664 16.3616 10.7083 5.86719 0 5.86719V24.5339H25.1733Z" fill="white"/>
<path d="M46.8818 5.58667C44.7975 5.58667 42.934 6.49333 41.8535 7.82453V0H39.3335V18.6667H41.4082L41.6743 16.7045C42.406 17.6843 43.8967 18.9467 46.7607 18.9467C50.6082 18.9467 53.334 16.1963 53.334 12.2976C53.334 8.39893 50.7186 5.58667 46.8823 5.58667H46.8818ZM46.1916 16.6085C43.4162 16.6085 41.7591 14.9563 41.7591 12.2704C41.7591 9.58453 43.4567 7.93227 46.1916 7.93227C48.9266 7.93227 50.6242 9.58453 50.6242 12.2704C50.6242 14.9563 48.9266 16.6085 46.1916 16.6085Z" fill="white"/>
<path d="M37.4668 0H34.9468V18.6667H37.4668V0Z" fill="white"/>
<path d="M27.8238 16.7699C25.9859 16.7699 24.0563 15.8734 23.02 14.5849L21.3203 16.2025C22.9779 18.0809 25.1459 18.9459 27.715 18.9459C31.2408 18.9459 33.4536 17.3753 33.4536 14.7267C33.4536 9.22114 23.8894 12.6643 23.8894 9.5614C23.8894 8.42594 25.2136 7.78274 27.276 7.78274C29.1139 7.78274 30.4408 8.37847 31.2659 9.2302L32.9656 7.6126C31.8403 6.40194 29.7214 5.58594 27.3395 5.58594C23.7763 5.58594 21.4323 7.2718 21.4323 9.93954C21.4323 15.2937 30.9587 11.8883 30.9587 15.0099C30.9587 16.1075 29.7171 16.7694 27.8232 16.7694H27.8238V16.7699Z" fill="white"/>
<path d="M53.053 22.666H25.813C31.4359 27.2543 40.0695 31.9993 53.053 31.9993V22.666Z" fill="white"/>
</g>
<defs>
<clipPath id="clip0_4244_10743">
<rect width="53.3339" height="32" fill="white"/>
</clipPath>
</defs>
</svg>
