<?xml version="1.0" encoding="UTF-8" standalone="no"?>
<!DOCTYPE svg PUBLIC "-//W3C//DTD SVG 1.1//EN"
 "http://www.w3.org/Graphics/SVG/1.1/DTD/svg11.dtd">
<!-- Generated by graphviz version 5.0.0 (20220707.1540)
 -->
<!-- Title: dependencies Pages: 1 -->
<svg width="909pt" height="174pt"
 viewBox="0.00 0.00 909.00 173.80" xmlns="http://www.w3.org/2000/svg" xmlns:xlink="http://www.w3.org/1999/xlink">
<g id="graph0" class="graph" transform="scale(1 1) rotate(0) translate(4 169.8)">
<title>dependencies</title>
<polygon fill="white" stroke="transparent" points="-4,4 -4,-169.8 905,-169.8 905,4 -4,4"/>
<text text-anchor="middle" x="450.5" y="-8.2" font-family="sans-serif" font-size="14.00">dependencies</text>
<g id="clust1" class="cluster">
<title>cluster_SharedAppsStorybookModule</title>
<polygon fill="none" stroke="black" stroke-dasharray="1,5" points="8,-32.8 8,-157.8 893,-157.8 893,-32.8 8,-32.8"/>
</g>
<g id="clust3" class="cluster">
<title>cluster_SharedAppsStorybookModule_imports</title>
<polygon fill="none" stroke="black" points="16,-40.8 16,-92.8 885,-92.8 885,-40.8 16,-40.8"/>
</g>
<!-- SharedAppsUiContactCardModule -->
<g id="node1" class="node">
<title>SharedAppsUiContactCardModule</title>
<polygon fill="#8dd3c7" stroke="black" points="877.25,-84.8 874.25,-88.8 853.25,-88.8 850.25,-84.8 664.75,-84.8 664.75,-48.8 877.25,-48.8 877.25,-84.8"/>
<text text-anchor="middle" x="771" y="-62.6" font-family="Times,serif" font-size="14.00">SharedAppsUiContactCardModule</text>
</g>
<!-- SharedAppsStorybookModule -->
<g id="node5" class="node">
<title>SharedAppsStorybookModule</title>
<polygon fill="#8dd3c7" stroke="black" points="543.32,-149.8 540.32,-153.8 519.32,-153.8 516.32,-149.8 356.68,-149.8 356.68,-113.8 543.32,-113.8 543.32,-149.8"/>
<text text-anchor="middle" x="450" y="-127.6" font-family="Times,serif" font-size="14.00">SharedAppsStorybookModule</text>
</g>
<!-- SharedAppsUiContactCardModule&#45;&gt;SharedAppsStorybookModule -->
<g id="edge1" class="edge">
<title>SharedAppsUiContactCardModule&#45;&gt;SharedAppsStorybookModule</title>
<path fill="none" stroke="black" d="M771,-84.91C771,-104.14 771,-131.8 771,-131.8 771,-131.8 553.28,-131.8 553.28,-131.8"/>
<polygon fill="black" stroke="black" points="553.28,-128.3 543.28,-131.8 553.28,-135.3 553.28,-128.3"/>
</g>
<!-- SharedAppsUiHeaderModule -->
<g id="node2" class="node">
<title>SharedAppsUiHeaderModule</title>
<polygon fill="#8dd3c7" stroke="black" points="646.4,-84.8 643.4,-88.8 622.4,-88.8 619.4,-84.8 463.6,-84.8 463.6,-48.8 646.4,-48.8 646.4,-84.8"/>
<text text-anchor="middle" x="555" y="-62.6" font-family="Times,serif" font-size="14.00">SharedAppsUiHeaderModule</text>
</g>
<!-- SharedAppsUiHeaderModule&#45;&gt;SharedAppsStorybookModule -->
<g id="edge2" class="edge">
<title>SharedAppsUiHeaderModule&#45;&gt;SharedAppsStorybookModule</title>
<path fill="none" stroke="black" d="M503.48,-84.91C503.48,-84.91 503.48,-103.79 503.48,-103.79"/>
<polygon fill="black" stroke="black" points="499.98,-103.79 503.48,-113.79 506.98,-103.79 499.98,-103.79"/>
</g>
<!-- SharedAppsUiOrderCardModule -->
<g id="node3" class="node">
<title>SharedAppsUiOrderCardModule</title>
<polygon fill="#8dd3c7" stroke="black" points="445.85,-84.8 442.85,-88.8 421.85,-88.8 418.85,-84.8 244.15,-84.8 244.15,-48.8 445.85,-48.8 445.85,-84.8"/>
<text text-anchor="middle" x="345" y="-62.6" font-family="Times,serif" font-size="14.00">SharedAppsUiOrderCardModule</text>
</g>
<!-- SharedAppsUiOrderCardModule&#45;&gt;SharedAppsStorybookModule -->
<g id="edge3" class="edge">
<title>SharedAppsUiOrderCardModule&#45;&gt;SharedAppsStorybookModule</title>
<path fill="none" stroke="black" d="M401.38,-84.91C401.38,-84.91 401.38,-103.79 401.38,-103.79"/>
<polygon fill="black" stroke="black" points="397.88,-103.79 401.38,-113.79 404.88,-103.79 397.88,-103.79"/>
</g>
<!-- SharedAppsUiSubSharedModule -->
<g id="node4" class="node">
<title>SharedAppsUiSubSharedModule</title>
<polygon fill="#8dd3c7" stroke="black" points="226.15,-84.8 223.15,-88.8 202.15,-88.8 199.15,-84.8 23.85,-84.8 23.85,-48.8 226.15,-48.8 226.15,-84.8"/>
<text text-anchor="middle" x="125" y="-62.6" font-family="Times,serif" font-size="14.00">SharedAppsUiSubSharedModule</text>
</g>
<!-- SharedAppsUiSubSharedModule&#45;&gt;SharedAppsStorybookModule -->
<g id="edge4" class="edge">
<title>SharedAppsUiSubSharedModule&#45;&gt;SharedAppsStorybookModule</title>
<path fill="none" stroke="black" d="M125,-84.91C125,-104.14 125,-131.8 125,-131.8 125,-131.8 346.43,-131.8 346.43,-131.8"/>
<polygon fill="black" stroke="black" points="346.43,-135.3 356.43,-131.8 346.43,-128.3 346.43,-135.3"/>
</g>
</g>
</svg>
