<?xml version="1.0" encoding="UTF-8" standalone="no"?>
<!DOCTYPE svg PUBLIC "-//W3C//DTD SVG 1.1//EN"
 "http://www.w3.org/Graphics/SVG/1.1/DTD/svg11.dtd">
<!-- Generated by graphviz version 5.0.0 (20220707.1540)
 -->
<!-- Title: dependencies Pages: 1 -->
<svg width="508pt" height="247pt"
 viewBox="0.00 0.00 508.00 246.80" xmlns="http://www.w3.org/2000/svg" xmlns:xlink="http://www.w3.org/1999/xlink">
<g id="graph0" class="graph" transform="scale(1 1) rotate(0) translate(4 242.8)">
<title>dependencies</title>
<polygon fill="white" stroke="transparent" points="-4,4 -4,-242.8 504,-242.8 504,4 -4,4"/>
<text text-anchor="middle" x="250" y="-8.2" font-family="sans-serif" font-size="14.00">dependencies</text>
<g id="clust1" class="cluster">
<title>cluster_SharedAppsUiSubSharedModule</title>
<polygon fill="none" stroke="black" stroke-dasharray="1,5" points="8,-32.8 8,-230.8 492,-230.8 492,-32.8 8,-32.8"/>
</g>
<g id="clust2" class="cluster">
<title>cluster_SharedAppsUiSubSharedModule_declarations</title>
<polygon fill="none" stroke="black" points="22,-40.8 22,-92.8 478,-92.8 478,-40.8 22,-40.8"/>
</g>
<g id="clust7" class="cluster">
<title>cluster_SharedAppsUiSubSharedModule_exports</title>
<polygon fill="none" stroke="black" points="16,-170.8 16,-222.8 484,-222.8 484,-170.8 16,-170.8"/>
</g>
<!-- SkeletonComponent -->
<g id="node1" class="node">
<title>SkeletonComponent</title>
<polygon fill="#ffffb3" stroke="black" points="470.32,-84.8 339.68,-84.8 339.68,-48.8 470.32,-48.8 470.32,-84.8"/>
<text text-anchor="middle" x="405" y="-62.6" font-family="Times,serif" font-size="14.00">SkeletonComponent</text>
</g>
<!-- SharedAppsUiSubSharedModule -->
<g id="node4" class="node">
<title>SharedAppsUiSubSharedModule</title>
<polygon fill="#8dd3c7" stroke="black" points="359.15,-149.8 356.15,-153.8 335.15,-153.8 332.15,-149.8 156.85,-149.8 156.85,-113.8 359.15,-113.8 359.15,-149.8"/>
<text text-anchor="middle" x="258" y="-127.6" font-family="Times,serif" font-size="14.00">SharedAppsUiSubSharedModule</text>
</g>
<!-- SkeletonComponent&#45;&gt;SharedAppsUiSubSharedModule -->
<g id="edge1" class="edge">
<title>SkeletonComponent&#45;&gt;SharedAppsUiSubSharedModule</title>
<path fill="none" stroke="black" d="M349.58,-84.91C349.58,-84.91 349.58,-103.79 349.58,-103.79"/>
<polygon fill="black" stroke="black" points="346.08,-103.79 349.58,-113.79 353.08,-103.79 346.08,-103.79"/>
</g>
<!-- SvgIconComponent -->
<g id="node2" class="node">
<title>SvgIconComponent</title>
<polygon fill="#ffffb3" stroke="black" points="321.99,-84.8 194.01,-84.8 194.01,-48.8 321.99,-48.8 321.99,-84.8"/>
<text text-anchor="middle" x="258" y="-62.6" font-family="Times,serif" font-size="14.00">SvgIconComponent</text>
</g>
<!-- SvgIconComponent&#45;&gt;SharedAppsUiSubSharedModule -->
<g id="edge2" class="edge">
<title>SvgIconComponent&#45;&gt;SharedAppsUiSubSharedModule</title>
<path fill="none" stroke="black" d="M258,-84.91C258,-84.91 258,-103.79 258,-103.79"/>
<polygon fill="black" stroke="black" points="254.5,-103.79 258,-113.79 261.5,-103.79 254.5,-103.79"/>
</g>
<!-- UserInitialsComponent -->
<g id="node3" class="node">
<title>UserInitialsComponent</title>
<polygon fill="#ffffb3" stroke="black" points="176.15,-84.8 29.85,-84.8 29.85,-48.8 176.15,-48.8 176.15,-84.8"/>
<text text-anchor="middle" x="103" y="-62.6" font-family="Times,serif" font-size="14.00">UserInitialsComponent</text>
</g>
<!-- UserInitialsComponent&#45;&gt;SharedAppsUiSubSharedModule -->
<g id="edge3" class="edge">
<title>UserInitialsComponent&#45;&gt;SharedAppsUiSubSharedModule</title>
<path fill="none" stroke="black" d="M166.5,-84.91C166.5,-84.91 166.5,-103.79 166.5,-103.79"/>
<polygon fill="black" stroke="black" points="163,-103.79 166.5,-113.79 170,-103.79 163,-103.79"/>
</g>
<!-- SkeletonComponent  -->
<g id="node5" class="node">
<title>SkeletonComponent </title>
<polygon fill="#fb8072" stroke="black" points="475.82,-214.8 342.18,-214.8 342.18,-178.8 475.82,-178.8 475.82,-214.8"/>
<text text-anchor="middle" x="409" y="-192.6" font-family="Times,serif" font-size="14.00">SkeletonComponent </text>
</g>
<!-- SharedAppsUiSubSharedModule&#45;&gt;SkeletonComponent  -->
<g id="edge4" class="edge">
<title>SharedAppsUiSubSharedModule&#45;&gt;SkeletonComponent </title>
<path fill="none" stroke="black" stroke-dasharray="5,2" d="M350.71,-149.91C350.71,-149.91 350.71,-168.79 350.71,-168.79"/>
<polygon fill="black" stroke="black" points="347.21,-168.79 350.71,-178.79 354.21,-168.79 347.21,-168.79"/>
</g>
<!-- SvgIconComponent  -->
<g id="node6" class="node">
<title>SvgIconComponent </title>
<polygon fill="#fb8072" stroke="black" points="323.99,-214.8 192.01,-214.8 192.01,-178.8 323.99,-178.8 323.99,-214.8"/>
<text text-anchor="middle" x="258" y="-192.6" font-family="Times,serif" font-size="14.00">SvgIconComponent </text>
</g>
<!-- SharedAppsUiSubSharedModule&#45;&gt;SvgIconComponent  -->
<g id="edge5" class="edge">
<title>SharedAppsUiSubSharedModule&#45;&gt;SvgIconComponent </title>
<path fill="none" stroke="black" stroke-dasharray="5,2" d="M258,-149.91C258,-149.91 258,-168.79 258,-168.79"/>
<polygon fill="black" stroke="black" points="254.5,-168.79 258,-178.79 261.5,-168.79 254.5,-168.79"/>
</g>
<!-- UserInitialsComponent  -->
<g id="node7" class="node">
<title>UserInitialsComponent </title>
<polygon fill="#fb8072" stroke="black" points="174.15,-214.8 23.85,-214.8 23.85,-178.8 174.15,-178.8 174.15,-214.8"/>
<text text-anchor="middle" x="99" y="-192.6" font-family="Times,serif" font-size="14.00">UserInitialsComponent </text>
</g>
<!-- SharedAppsUiSubSharedModule&#45;&gt;UserInitialsComponent  -->
<g id="edge6" class="edge">
<title>SharedAppsUiSubSharedModule&#45;&gt;UserInitialsComponent </title>
<path fill="none" stroke="black" stroke-dasharray="5,2" d="M165.38,-149.91C165.38,-149.91 165.38,-168.79 165.38,-168.79"/>
<polygon fill="black" stroke="black" points="161.88,-168.79 165.38,-178.79 168.88,-168.79 161.88,-168.79"/>
</g>
</g>
</svg>
