<?xml version="1.0" encoding="UTF-8" standalone="no"?>
<!DOCTYPE svg PUBLIC "-//W3C//DTD SVG 1.1//EN"
 "http://www.w3.org/Graphics/SVG/1.1/DTD/svg11.dtd">
<!-- Generated by graphviz version 5.0.0 (20220707.1540)
 -->
<!-- Title: dependencies Pages: 1 -->
<svg width="688pt" height="247pt"
 viewBox="0.00 0.00 688.00 246.80" xmlns="http://www.w3.org/2000/svg" xmlns:xlink="http://www.w3.org/1999/xlink">
<g id="graph0" class="graph" transform="scale(1 1) rotate(0) translate(4 242.8)">
<title>dependencies</title>
<polygon fill="white" stroke="transparent" points="-4,4 -4,-242.8 684,-242.8 684,4 -4,4"/>
<text text-anchor="middle" x="340" y="-8.2" font-family="sans-serif" font-size="14.00">dependencies</text>
<g id="clust1" class="cluster">
<title>cluster_SharedAppsUiSubSharedModule</title>
<polygon fill="none" stroke="black" stroke-dasharray="1,5" points="8,-32.8 8,-230.8 672,-230.8 672,-32.8 8,-32.8"/>
</g>
<g id="clust2" class="cluster">
<title>cluster_SharedAppsUiSubSharedModule_declarations</title>
<polygon fill="none" stroke="black" points="24,-40.8 24,-92.8 658,-92.8 658,-40.8 24,-40.8"/>
</g>
<g id="clust8" class="cluster">
<title>cluster_SharedAppsUiSubSharedModule_exports</title>
<polygon fill="none" stroke="black" points="16,-170.8 16,-222.8 664,-222.8 664,-170.8 16,-170.8"/>
</g>
<!-- SkeletonComponent -->
<g id="node1" class="node">
<title>SkeletonComponent</title>
<polygon fill="#ffffb3" stroke="black" points="650.32,-84.8 519.68,-84.8 519.68,-48.8 650.32,-48.8 650.32,-84.8"/>
<text text-anchor="middle" x="585" y="-62.6" font-family="Times,serif" font-size="14.00">SkeletonComponent</text>
</g>
<!-- SharedAppsUiSubSharedModule -->
<g id="node5" class="node">
<title>SharedAppsUiSubSharedModule</title>
<polygon fill="#8dd3c7" stroke="black" points="364.15,-149.8 361.15,-153.8 340.15,-153.8 337.15,-149.8 161.85,-149.8 161.85,-113.8 364.15,-113.8 364.15,-149.8"/>
<text text-anchor="middle" x="263" y="-127.6" font-family="Times,serif" font-size="14.00">SharedAppsUiSubSharedModule</text>
</g>
<!-- SkeletonComponent&#45;&gt;SharedAppsUiSubSharedModule -->
<g id="edge1" class="edge">
<title>SkeletonComponent&#45;&gt;SharedAppsUiSubSharedModule</title>
<path fill="none" stroke="black" d="M607.47,-84.82C607.47,-102.17 607.47,-125.8 607.47,-125.8 607.47,-125.8 374.49,-125.8 374.49,-125.8"/>
<polygon fill="black" stroke="black" points="374.49,-122.3 364.49,-125.8 374.49,-129.3 374.49,-122.3"/>
</g>
<!-- StatusTrackerComponent -->
<g id="node2" class="node">
<title>StatusTrackerComponent</title>
<polygon fill="#ffffb3" stroke="black" points="501.58,-84.8 342.42,-84.8 342.42,-48.8 501.58,-48.8 501.58,-84.8"/>
<text text-anchor="middle" x="422" y="-62.6" font-family="Times,serif" font-size="14.00">StatusTrackerComponent</text>
</g>
<!-- StatusTrackerComponent&#45;&gt;SharedAppsUiSubSharedModule -->
<g id="edge2" class="edge">
<title>StatusTrackerComponent&#45;&gt;SharedAppsUiSubSharedModule</title>
<path fill="none" stroke="black" d="M353.39,-84.91C353.39,-84.91 353.39,-103.79 353.39,-103.79"/>
<polygon fill="black" stroke="black" points="349.89,-103.79 353.39,-113.79 356.89,-103.79 349.89,-103.79"/>
</g>
<!-- SvgIconComponent -->
<g id="node3" class="node">
<title>SvgIconComponent</title>
<polygon fill="#ffffb3" stroke="black" points="323.99,-84.8 196.01,-84.8 196.01,-48.8 323.99,-48.8 323.99,-84.8"/>
<text text-anchor="middle" x="260" y="-62.6" font-family="Times,serif" font-size="14.00">SvgIconComponent</text>
</g>
<!-- SvgIconComponent&#45;&gt;SharedAppsUiSubSharedModule -->
<g id="edge3" class="edge">
<title>SvgIconComponent&#45;&gt;SharedAppsUiSubSharedModule</title>
<path fill="none" stroke="black" d="M260,-84.91C260,-84.91 260,-103.79 260,-103.79"/>
<polygon fill="black" stroke="black" points="256.5,-103.79 260,-113.79 263.5,-103.79 256.5,-103.79"/>
</g>
<!-- UserInitialsComponent -->
<g id="node4" class="node">
<title>UserInitialsComponent</title>
<polygon fill="#ffffb3" stroke="black" points="178.15,-84.8 31.85,-84.8 31.85,-48.8 178.15,-48.8 178.15,-84.8"/>
<text text-anchor="middle" x="105" y="-62.6" font-family="Times,serif" font-size="14.00">UserInitialsComponent</text>
</g>
<!-- UserInitialsComponent&#45;&gt;SharedAppsUiSubSharedModule -->
<g id="edge4" class="edge">
<title>UserInitialsComponent&#45;&gt;SharedAppsUiSubSharedModule</title>
<path fill="none" stroke="black" d="M170,-84.91C170,-84.91 170,-103.79 170,-103.79"/>
<polygon fill="black" stroke="black" points="166.5,-103.79 170,-113.79 173.5,-103.79 166.5,-103.79"/>
</g>
<!-- SkeletonComponent  -->
<g id="node6" class="node">
<title>SkeletonComponent </title>
<polygon fill="#fb8072" stroke="black" points="655.82,-214.8 522.18,-214.8 522.18,-178.8 655.82,-178.8 655.82,-214.8"/>
<text text-anchor="middle" x="589" y="-192.6" font-family="Times,serif" font-size="14.00">SkeletonComponent </text>
</g>
<!-- SharedAppsUiSubSharedModule&#45;&gt;SkeletonComponent  -->
<g id="edge5" class="edge">
<title>SharedAppsUiSubSharedModule&#45;&gt;SkeletonComponent </title>
<path fill="none" stroke="black" stroke-dasharray="5,2" d="M364.33,-137.8C452,-137.8 564.78,-137.8 564.78,-137.8 564.78,-137.8 564.78,-168.78 564.78,-168.78"/>
<polygon fill="black" stroke="black" points="561.28,-168.78 564.78,-178.78 568.28,-168.78 561.28,-168.78"/>
</g>
<!-- StatusTrackerComponent  -->
<g id="node7" class="node">
<title>StatusTrackerComponent </title>
<polygon fill="#fb8072" stroke="black" points="504.08,-214.8 341.92,-214.8 341.92,-178.8 504.08,-178.8 504.08,-214.8"/>
<text text-anchor="middle" x="423" y="-192.6" font-family="Times,serif" font-size="14.00">StatusTrackerComponent </text>
</g>
<!-- SharedAppsUiSubSharedModule&#45;&gt;StatusTrackerComponent  -->
<g id="edge6" class="edge">
<title>SharedAppsUiSubSharedModule&#45;&gt;StatusTrackerComponent </title>
<path fill="none" stroke="black" stroke-dasharray="5,2" d="M353.02,-149.91C353.02,-149.91 353.02,-168.79 353.02,-168.79"/>
<polygon fill="black" stroke="black" points="349.52,-168.79 353.02,-178.79 356.52,-168.79 349.52,-168.79"/>
</g>
<!-- SvgIconComponent  -->
<g id="node8" class="node">
<title>SvgIconComponent </title>
<polygon fill="#fb8072" stroke="black" points="323.99,-214.8 192.01,-214.8 192.01,-178.8 323.99,-178.8 323.99,-214.8"/>
<text text-anchor="middle" x="258" y="-192.6" font-family="Times,serif" font-size="14.00">SvgIconComponent </text>
</g>
<!-- SharedAppsUiSubSharedModule&#45;&gt;SvgIconComponent  -->
<g id="edge7" class="edge">
<title>SharedAppsUiSubSharedModule&#45;&gt;SvgIconComponent </title>
<path fill="none" stroke="black" stroke-dasharray="5,2" d="M258,-149.91C258,-149.91 258,-168.79 258,-168.79"/>
<polygon fill="black" stroke="black" points="254.5,-168.79 258,-178.79 261.5,-168.79 254.5,-168.79"/>
</g>
<!-- UserInitialsComponent  -->
<g id="node9" class="node">
<title>UserInitialsComponent </title>
<polygon fill="#fb8072" stroke="black" points="174.15,-214.8 23.85,-214.8 23.85,-178.8 174.15,-178.8 174.15,-214.8"/>
<text text-anchor="middle" x="99" y="-192.6" font-family="Times,serif" font-size="14.00">UserInitialsComponent </text>
</g>
<!-- SharedAppsUiSubSharedModule&#45;&gt;UserInitialsComponent  -->
<g id="edge8" class="edge">
<title>SharedAppsUiSubSharedModule&#45;&gt;UserInitialsComponent </title>
<path fill="none" stroke="black" stroke-dasharray="5,2" d="M167.88,-149.91C167.88,-149.91 167.88,-168.79 167.88,-168.79"/>
<polygon fill="black" stroke="black" points="164.38,-168.79 167.88,-178.79 171.38,-168.79 164.38,-168.79"/>
</g>
</g>
</svg>
