<?xml version="1.0" encoding="UTF-8" standalone="no"?>
<!DOCTYPE svg PUBLIC "-//W3C//DTD SVG 1.1//EN"
 "http://www.w3.org/Graphics/SVG/1.1/DTD/svg11.dtd">
<!-- Generated by graphviz version 5.0.0 (20220707.1540)
 -->
<!-- Title: dependencies Pages: 1 -->
<svg width="404pt" height="247pt"
 viewBox="0.00 0.00 404.00 246.80" xmlns="http://www.w3.org/2000/svg" xmlns:xlink="http://www.w3.org/1999/xlink">
<g id="graph0" class="graph" transform="scale(1 1) rotate(0) translate(4 242.8)">
<title>dependencies</title>
<polygon fill="white" stroke="transparent" points="-4,4 -4,-242.8 400,-242.8 400,4 -4,4"/>
<text text-anchor="middle" x="198" y="-8.2" font-family="sans-serif" font-size="14.00">dependencies</text>
<g id="clust1" class="cluster">
<title>cluster_SharedAppsUiHeaderModule</title>
<polygon fill="none" stroke="black" stroke-dasharray="1,5" points="8,-32.8 8,-230.8 388,-230.8 388,-32.8 8,-32.8"/>
</g>
<g id="clust2" class="cluster">
<title>cluster_SharedAppsUiHeaderModule_declarations</title>
<polygon fill="none" stroke="black" points="242,-40.8 242,-92.8 380,-92.8 380,-40.8 242,-40.8"/>
</g>
<g id="clust4" class="cluster">
<title>cluster_SharedAppsUiHeaderModule_imports</title>
<polygon fill="none" stroke="black" points="16,-40.8 16,-92.8 234,-92.8 234,-40.8 16,-40.8"/>
</g>
<g id="clust5" class="cluster">
<title>cluster_SharedAppsUiHeaderModule_exports</title>
<polygon fill="none" stroke="black" points="136,-170.8 136,-222.8 278,-222.8 278,-170.8 136,-170.8"/>
</g>
<!-- HeaderComponent -->
<g id="node1" class="node">
<title>HeaderComponent</title>
<polygon fill="#ffffb3" stroke="black" points="371.75,-84.8 250.25,-84.8 250.25,-48.8 371.75,-48.8 371.75,-84.8"/>
<text text-anchor="middle" x="311" y="-62.6" font-family="Times,serif" font-size="14.00">HeaderComponent</text>
</g>
<!-- SharedAppsUiHeaderModule -->
<g id="node2" class="node">
<title>SharedAppsUiHeaderModule</title>
<polygon fill="#8dd3c7" stroke="black" points="298.4,-149.8 295.4,-153.8 274.4,-153.8 271.4,-149.8 115.6,-149.8 115.6,-113.8 298.4,-113.8 298.4,-149.8"/>
<text text-anchor="middle" x="207" y="-127.6" font-family="Times,serif" font-size="14.00">SharedAppsUiHeaderModule</text>
</g>
<!-- HeaderComponent&#45;&gt;SharedAppsUiHeaderModule -->
<g id="edge1" class="edge">
<title>HeaderComponent&#45;&gt;SharedAppsUiHeaderModule</title>
<path fill="none" stroke="black" d="M274.16,-84.91C274.16,-84.91 274.16,-103.79 274.16,-103.79"/>
<polygon fill="black" stroke="black" points="270.66,-103.79 274.16,-113.79 277.66,-103.79 270.66,-103.79"/>
</g>
<!-- HeaderComponent  -->
<g id="node4" class="node">
<title>HeaderComponent </title>
<polygon fill="#fb8072" stroke="black" points="269.75,-214.8 144.25,-214.8 144.25,-178.8 269.75,-178.8 269.75,-214.8"/>
<text text-anchor="middle" x="207" y="-192.6" font-family="Times,serif" font-size="14.00">HeaderComponent </text>
</g>
<!-- SharedAppsUiHeaderModule&#45;&gt;HeaderComponent  -->
<g id="edge3" class="edge">
<title>SharedAppsUiHeaderModule&#45;&gt;HeaderComponent </title>
<path fill="none" stroke="black" stroke-dasharray="5,2" d="M207,-149.91C207,-149.91 207,-168.79 207,-168.79"/>
<polygon fill="black" stroke="black" points="203.5,-168.79 207,-178.79 210.5,-168.79 203.5,-168.79"/>
</g>
<!-- SharedAppsUiSubSharedModule -->
<g id="node3" class="node">
<title>SharedAppsUiSubSharedModule</title>
<polygon fill="#8dd3c7" stroke="black" points="226.15,-84.8 223.15,-88.8 202.15,-88.8 199.15,-84.8 23.85,-84.8 23.85,-48.8 226.15,-48.8 226.15,-84.8"/>
<text text-anchor="middle" x="125" y="-62.6" font-family="Times,serif" font-size="14.00">SharedAppsUiSubSharedModule</text>
</g>
<!-- SharedAppsUiSubSharedModule&#45;&gt;SharedAppsUiHeaderModule -->
<g id="edge2" class="edge">
<title>SharedAppsUiSubSharedModule&#45;&gt;SharedAppsUiHeaderModule</title>
<path fill="none" stroke="black" d="M171.06,-84.91C171.06,-84.91 171.06,-103.79 171.06,-103.79"/>
<polygon fill="black" stroke="black" points="167.56,-103.79 171.06,-113.79 174.56,-103.79 167.56,-103.79"/>
</g>
</g>
</svg>
