<svg aria-hidden="true" style="position:absolute;width:0;height:0" xmlns="http://www.w3.org/2000/svg" overflow="hidden"><defs>
<symbol id="search_icon" viewBox="0 0 16 16">
<path fill-rule="evenodd" clip-rule="evenodd" d="M2 7.27777C2 4.36294 4.36294 2 7.27777 2C10.1926 2 12.5555 4.36294 12.5555 7.27777C12.5555 8.70633 11.988 10.0023 11.066 10.9526C11.0446 10.9681 11.0241 10.9855 11.0048 11.0048C10.9854 11.0241 10.968 11.0446 10.9526 11.066C10.0023 11.988 8.70633 12.5555 7.27777 12.5555C4.36294 12.5555 2 10.1926 2 7.27777ZM11.3492 12.0564C10.2531 12.9912 8.83134 13.5555 7.27777 13.5555C3.81065 13.5555 1 10.7449 1 7.27777C1 3.81065 3.81065 1 7.27777 1C10.7449 1 13.5555 3.81065 13.5555 7.27777C13.5555 8.83134 12.9912 10.2531 12.0564 11.3493L14.8535 14.1464C15.0488 14.3417 15.0488 14.6583 14.8535 14.8535C14.6583 15.0488 14.3417 15.0488 14.1464 14.8535L11.3492 12.0564Z"/>
</symbol>
<symbol id="search_icon_trb" viewBox="0 0 24 24">
<path fill-rule="evenodd" clip-rule="evenodd" d="M10.5 6C10.9142 6 11.25 6.33579 11.25 6.75V10.75C11.25 11.1642 10.9142 11.5 10.5 11.5C10.0858 11.5 9.75 11.1642 9.75 10.75V6.75C9.75 6.33579 10.0858 6 10.5 6Z"/>
<path fill-rule="evenodd" clip-rule="evenodd" d="M9.75 14.75C9.75 14.3358 10.0858 14 10.5 14H10.51C10.9242 14 11.26 14.3358 11.26 14.75C11.26 15.1642 10.9242 15.5 10.51 15.5H10.5C10.0858 15.5 9.75 15.1642 9.75 14.75Z"/>
<path fill-rule="evenodd" clip-rule="evenodd" d="M10.875 18.75C15.2242 18.75 18.75 15.2242 18.75 10.875C18.75 6.52576 15.2242 3 10.875 3C6.52576 3 3 6.52576 3 10.875C3 15.2242 6.52576 18.75 10.875 18.75ZM10.875 20.25C16.0527 20.25 20.25 16.0527 20.25 10.875C20.25 5.69733 16.0527 1.5 10.875 1.5C5.69733 1.5 1.5 5.69733 1.5 10.875C1.5 16.0527 5.69733 20.25 10.875 20.25Z"/>
<path fill-rule="evenodd" clip-rule="evenodd" d="M16.8751 16.1895L23.0304 22.3448C23.3233 22.6377 23.3233 23.1125 23.0304 23.4054C22.7375 23.6983 22.2627 23.6983 21.9698 23.4054L15.8145 17.2501L16.8751 16.1895Z"/>
</symbol>
<symbol id="filter_icon" viewBox="0 0 16 16">
<path fill-rule="evenodd" clip-rule="evenodd" d="M0.879944 1.78956C0.961873 1.61298 1.13884 1.5 1.3335 1.5H14.6668C14.8615 1.5 15.0385 1.61298 15.1204 1.78956C15.2023 1.96614 15.1743 2.17422 15.0486 2.32286L9.8335 8.48974V14C9.8335 14.1733 9.74378 14.3342 9.59637 14.4253C9.44896 14.5164 9.26489 14.5247 9.1099 14.4472L6.44323 13.1139C6.27384 13.0292 6.16684 12.8561 6.16684 12.6667V8.48974L0.951718 2.32286C0.826019 2.17422 0.798015 1.96614 0.879944 1.78956ZM2.41115 2.5L7.04862 7.9838C7.12495 8.07407 7.16684 8.18846 7.16684 8.30667V12.3577L8.8335 13.191V8.30667C8.8335 8.18846 8.87539 8.07407 8.95172 7.9838L13.5892 2.5H2.41115Z"/>
</symbol>
<symbol id="home_icon" viewBox="0 0 20 20">
<path fill-rule="evenodd" clip-rule="evenodd" d="M9.61629 1.17331C9.84198 0.997772 10.158 0.997772 10.3837 1.17331L17.8837 7.00665C18.036 7.12506 18.125 7.30712 18.125 7.49999V16.6667C18.125 17.2744 17.8836 17.8573 17.4538 18.2871C17.024 18.7169 16.4411 18.9583 15.8333 18.9583H4.16667C3.55888 18.9583 2.97598 18.7169 2.54621 18.2871C2.11644 17.8573 1.875 17.2744 1.875 16.6667V7.49999C1.875 7.30712 1.96405 7.12506 2.11629 7.00665L9.61629 1.17331ZM3.125 7.80567V16.6667C3.125 16.9429 3.23475 17.2079 3.4301 17.4032C3.62545 17.5986 3.8904 17.7083 4.16667 17.7083H15.8333C16.1096 17.7083 16.3746 17.5986 16.5699 17.4032C16.7653 17.2079 16.875 16.9429 16.875 16.6667V7.80567L10 2.45845L3.125 7.80567Z"/>
<path fill-rule="evenodd" clip-rule="evenodd" d="M6.875 10C6.875 9.65482 7.15482 9.375 7.5 9.375H12.5C12.8452 9.375 13.125 9.65482 13.125 10V18.3333C13.125 18.6785 12.8452 18.9583 12.5 18.9583C12.1548 18.9583 11.875 18.6785 11.875 18.3333V10.625H8.125V18.3333C8.125 18.6785 7.84518 18.9583 7.5 18.9583C7.15482 18.9583 6.875 18.6785 6.875 18.3333V10Z"/>
</symbol>
<symbol id="map_icon" viewBox="0 0 16 16">
<path fill-rule="evenodd" clip-rule="evenodd" d="M8 1.16666C6.54131 1.16666 5.14236 1.74612 4.11091 2.77757C3.07946 3.80902 2.5 5.20797 2.5 6.66666C2.5 8.79902 3.88287 10.8438 5.36298 12.4061C6.09281 13.1765 6.82433 13.8066 7.37396 14.2443C7.62883 14.4472 7.84371 14.6081 8 14.7217C8.15629 14.6081 8.37117 14.4472 8.62604 14.2443C9.17567 13.8066 9.90719 13.1765 10.637 12.4061C12.1171 10.8438 13.5 8.79902 13.5 6.66666C13.5 5.20797 12.9205 3.80902 11.8891 2.77757C10.8576 1.74612 9.45869 1.16666 8 1.16666ZM8 15.3333C7.72265 15.7493 7.72252 15.7493 7.72236 15.7492L7.72068 15.748L7.71653 15.7452L7.70186 15.7353C7.68928 15.7268 7.67119 15.7144 7.64793 15.6983C7.60143 15.6661 7.53429 15.6189 7.44944 15.5577C7.2798 15.4352 7.03912 15.2559 6.75104 15.0265C6.17567 14.5684 5.40719 13.9068 4.63702 13.0939C3.11713 11.4895 1.5 9.20096 1.5 6.66666C1.5 4.94275 2.18482 3.28945 3.40381 2.07046C4.62279 0.851476 6.27609 0.166656 8 0.166656C9.72391 0.166656 11.3772 0.851476 12.5962 2.07046C13.8152 3.28945 14.5 4.94275 14.5 6.66666C14.5 9.20096 12.8829 11.4895 11.363 13.0939C10.5928 13.9068 9.82433 14.5684 9.24896 15.0265C8.96088 15.2559 8.7202 15.4352 8.55056 15.5577C8.46571 15.6189 8.39857 15.6661 8.35207 15.6983C8.32881 15.7144 8.31072 15.7268 8.29814 15.7353L8.28347 15.7452L8.27932 15.748L8.27764 15.7492C8.27748 15.7493 8.27735 15.7493 8 15.3333ZM8 15.3333L8.27764 15.7492C8.10969 15.8611 7.89031 15.8611 7.72236 15.7492L8 15.3333Z"/>
<path fill-rule="evenodd" clip-rule="evenodd" d="M8 5.16666C7.17157 5.16666 6.5 5.83823 6.5 6.66666C6.5 7.49508 7.17157 8.16666 8 8.16666C8.82843 8.16666 9.5 7.49508 9.5 6.66666C9.5 5.83823 8.82843 5.16666 8 5.16666ZM5.5 6.66666C5.5 5.28594 6.61929 4.16666 8 4.16666C9.38071 4.16666 10.5 5.28594 10.5 6.66666C10.5 8.04737 9.38071 9.16666 8 9.16666C6.61929 9.16666 5.5 8.04737 5.5 6.66666Z"/>
</symbol>
<symbol id="support_icon" viewBox="0 0 17 16">
<path fill-rule="evenodd" clip-rule="evenodd" d="M4.51757 3.15032C3.81719 3.97715 3.58423 4.97429 3.58423 5.62117V6.39703L3.58427 6.40862V9.55851C3.58427 10.4102 2.89383 11.1006 2.04213 11.1006C1.19044 11.1006 0.5 10.4102 0.5 9.55851V6.40862C0.5 5.55693 1.19044 4.86649 2.04213 4.86649C2.25763 4.86649 2.4628 4.91069 2.64908 4.99052C2.76373 4.22725 3.09172 3.31068 3.76647 2.5141C4.65695 1.46284 6.11262 0.666656 8.34188 0.666656C10.5711 0.666656 12.0268 1.46284 12.9173 2.5141C13.592 3.31069 13.92 4.22726 14.0347 4.99054C14.221 4.9107 14.4261 4.86649 14.6417 4.86649C15.4934 4.86649 16.1838 5.55693 16.1838 6.40862V9.55851C16.1838 10.4102 15.4934 11.1006 14.6417 11.1006C14.328 11.1006 14.0361 11.007 13.7926 10.8461C13.6757 11.1853 13.5117 11.5432 13.2818 11.8949C12.6669 12.8359 11.6205 13.6761 9.89032 14.0479C9.75438 14.7795 9.11284 15.3333 8.34194 15.3333C7.47212 15.3333 6.767 14.6282 6.767 13.7584C6.767 12.8886 7.47212 12.1834 8.34194 12.1834C8.96476 12.1834 9.50313 12.545 9.75867 13.0696C11.2173 12.7387 12.0115 12.0395 12.4578 11.3564C13.0962 10.3796 13.0995 9.32436 13.0995 9.03356V5.62117C13.0995 4.97429 12.8666 3.97715 12.1662 3.15032C11.4817 2.34226 10.3125 1.651 8.34188 1.651C6.37128 1.651 5.20204 2.34226 4.51757 3.15032ZM2.59989 6.40163C2.59614 6.09679 2.34786 5.85083 2.04213 5.85083C1.73407 5.85083 1.48434 6.10056 1.48434 6.40862V9.55851C1.48434 9.86658 1.73407 10.1163 2.04213 10.1163C2.35019 10.1163 2.59993 9.86657 2.59993 9.55851V9.03356H2.59989V6.40163ZM14.6417 5.85083C14.3336 5.85083 14.0839 6.10056 14.0839 6.40862V9.55851C14.0839 9.86658 14.3336 10.1163 14.6417 10.1163C14.9497 10.1163 15.1995 9.86657 15.1995 9.55851V6.40862C15.1995 6.10056 14.9497 5.85083 14.6417 5.85083Z"/>
</symbol>
<symbol id="dropdown_icon" viewBox="0 0 10 6">
<path fill-rule="evenodd" clip-rule="evenodd" d="M0.646447 0.646447C0.841709 0.451184 1.15829 0.451184 1.35355 0.646447L5 4.29289L8.64645 0.646447C8.84171 0.451184 9.15829 0.451184 9.35355 0.646447C9.54882 0.841709 9.54882 1.15829 9.35355 1.35355L5.35355 5.35355C5.15829 5.54882 4.84171 5.54882 4.64645 5.35355L0.646447 1.35355C0.451184 1.15829 0.451184 0.841709 0.646447 0.646447Z"/>
</symbol>
<!-- <symbol id="bell_icon" viewBox="0 0 10 12">
<path d="M5.04808 12C5.725 12 6.27885 11.4462 6.27885 10.7692H3.81731C3.81731 11.0957 3.94698 11.4087 4.17779 11.6395C4.40861 11.8703 4.72166 12 5.04808 12ZM8.74039 8.30769V5.23077C8.74039 3.34154 7.73115 1.76 5.97115 1.34154V0H4.125V1.34154C2.35885 1.76 1.35577 3.33538 1.35577 5.23077V8.30769L0.125 9.53846V10.1538H9.97115V9.53846L8.74039 8.30769Z"/>
</symbol> -->
<symbol id="showpass_icon" viewBox="0 0 24 24">
<path fill-rule="evenodd" clip-rule="evenodd" d="M11.9996 5.75C7.97554 5.75 4.88879 8.8359 3.32573 11.2114C2.99534 11.7135 2.98024 12.3442 3.283 12.8463C4.6929 15.1847 7.65214 18.25 11.9996 18.25C16.347 18.25 19.3062 15.1847 20.7161 12.8463C21.0189 12.3442 21.0038 11.7135 20.6734 11.2114C19.1103 8.8359 16.0236 5.75 11.9996 5.75ZM2.07267 10.3869C3.72465 7.87623 7.20407 4.25 11.9996 4.25C16.7951 4.25 20.2745 7.87623 21.9265 10.3869C22.5662 11.3591 22.6093 12.6116 22.0007 13.6209C20.468 16.1629 17.1078 19.75 11.9996 19.75C6.89138 19.75 3.53115 16.1629 1.99843 13.6209C1.38987 12.6116 1.43293 11.3591 2.07267 10.3869Z"/>
<path fill-rule="evenodd" clip-rule="evenodd" d="M12 14.25C13.2426 14.25 14.25 13.2426 14.25 12C14.25 10.7574 13.2426 9.75 12 9.75C10.7574 9.75 9.75 10.7574 9.75 12C9.75 13.2426 10.7574 14.25 12 14.25ZM12 15.75C14.0711 15.75 15.75 14.0711 15.75 12C15.75 9.92893 14.0711 8.25 12 8.25C9.92893 8.25 8.25 9.92893 8.25 12C8.25 14.0711 9.92893 15.75 12 15.75Z"/>
</symbol>
<symbol id="hidepass_icon" viewBox="0 0 24 24">
<path fill-rule="evenodd" clip-rule="evenodd" d="M23.0898 3.28667C23.3457 3.61237 23.2891 4.08386 22.9634 4.33977L1.9634 20.8398C1.63769 21.0957 1.1662 21.0391 0.910293 20.7134C0.654383 20.3877 0.710962 19.9162 1.03667 19.6603L22.0367 3.16029C22.3624 2.90438 22.8339 2.96096 23.0898 3.28667Z"/>
<path fill-rule="evenodd" clip-rule="evenodd" d="M3.32671 11.2114C4.88977 8.8359 7.97651 5.75 12.0005 5.75C14.2605 5.75 16.2248 6.72329 17.7896 7.99743L18.9947 7.05057C17.1884 5.50555 14.8223 4.25 12.0005 4.25C7.20505 4.25 3.72563 7.87623 2.07364 10.3869C1.43391 11.3591 1.39085 12.6116 1.99941 13.6209C2.75462 14.8734 3.95351 16.3796 5.58657 17.5855L6.81689 16.6188C5.21839 15.5349 4.03271 14.0881 3.28397 12.8463C2.98122 12.3442 2.99632 11.7135 3.32671 11.2114ZM8.22738 17.4182L6.92409 18.4422C8.35917 19.2285 10.0528 19.75 12.0005 19.75C17.1087 19.75 20.469 16.1629 22.0017 13.6209C22.6102 12.6116 22.5672 11.3591 21.9274 10.3869C21.4596 9.67583 20.8452 8.87532 20.0958 8.09303L18.9111 9.02387C19.6211 9.74998 20.2139 10.5115 20.6744 11.2114C21.0048 11.7135 21.0199 12.3442 20.7171 12.8463C19.3072 15.1847 16.348 18.25 12.0005 18.25C10.5961 18.25 9.33661 17.9301 8.22738 17.4182Z"/>
<path fill-rule="evenodd" clip-rule="evenodd" d="M15.1951 10.0358C14.535 8.96431 13.3509 8.25 12 8.25C9.92893 8.25 8.25 9.92893 8.25 12C8.25 13.0293 8.66468 13.9617 9.33608 14.6393L10.5287 13.7023C10.0517 13.2897 9.75 12.6801 9.75 12C9.75 10.7574 10.7574 9.75 12 9.75C12.8726 9.75 13.6292 10.2468 14.0024 10.9729L15.1951 10.0358ZM12.2817 14.2325C13.1183 14.128 13.8122 13.5642 14.1031 12.8015L15.7209 11.5303C15.7401 11.6842 15.75 11.8409 15.75 12C15.75 14.0711 14.0711 15.75 12 15.75C11.5289 15.75 11.0781 15.6631 10.6628 15.5046L12.2817 14.2325Z"/>
</symbol>
<symbol id="chat_msg_icon" viewBox="0 0 24 24">
<path fill-rule="evenodd" clip-rule="evenodd" d="M3.99408 6.68354C4.28697 6.97643 4.28697 7.4513 3.99408 7.7442C3.8378 7.90048 3.75 8.11244 3.75 8.33345V19.1895L5.63634 17.3031C5.77699 17.1625 5.96775 17.0835 6.16667 17.0835H15.6667C15.8877 17.0835 16.0996 16.9957 16.2559 16.8394C16.5488 16.5465 17.0237 16.5465 17.3166 16.8394C17.6095 17.1323 17.6095 17.6071 17.3166 17.9C16.879 18.3376 16.2855 18.5835 15.6667 18.5835H6.47733L3.53033 21.5305C3.31583 21.7449 2.99324 21.8091 2.71299 21.693C2.43273 21.5769 2.25 21.3035 2.25 21.0001V8.33345C2.25 7.71461 2.49583 7.12112 2.93342 6.68354C3.22631 6.39064 3.70118 6.39064 3.99408 6.68354Z"/>
<path fill-rule="evenodd" clip-rule="evenodd" d="M19.3333 3.75C19.5764 3.75 19.8096 3.84658 19.9815 4.01849C20.1534 4.19039 20.25 4.42355 20.25 4.66667V16.1893L18.197 14.1363C18.0563 13.9957 17.8656 13.9167 17.6667 13.9167H7.66667C7.42355 13.9167 7.19039 13.8201 7.01849 13.6482C6.84658 13.4763 6.75 13.2431 6.75 13V4.66667C6.75 4.42355 6.84658 4.19039 7.01849 4.01849C7.19039 3.84658 7.42355 3.75 7.66667 3.75H19.3333ZM21.0422 2.95783C20.589 2.50461 19.9743 2.25 19.3333 2.25H7.66667C7.02573 2.25 6.41104 2.50461 5.95782 2.95783C5.50461 3.41104 5.25 4.02573 5.25 4.66667V13C5.25 13.6409 5.50461 14.2556 5.95782 14.7088C6.41104 15.1621 7.02573 15.4167 7.66667 15.4167H17.356L20.4697 18.5303C20.6842 18.7448 21.0068 18.809 21.287 18.6929C21.5673 18.5768 21.75 18.3033 21.75 18V4.66667C21.75 4.02573 21.4954 3.41104 21.0422 2.95783Z"/>
</symbol>
<symbol id="tick_icon" viewBox="0 0 9 6">
<path fill-rule="evenodd" clip-rule="evenodd" d="M8.103 0.145894C8.29857 0.34085 8.29906 0.657432 8.10411 0.853L3.11973 5.853C3.02592 5.94711 2.8985 6 2.76562 6C2.63275 6 2.50533 5.94711 2.41152 5.853L0.145894 3.58027C-0.0490626 3.38471 -0.0485671 3.06812 0.147 2.87317C0.342568 2.67821 0.65915 2.67871 0.854106 2.87427L2.76562 4.79178L7.39589 0.147C7.59085 -0.0485671 7.90743 -0.0490626 8.103 0.145894Z"/>
</symbol>
<symbol id="cross_icon" viewBox="0 0 32 32">
<path fill-rule="evenodd" clip-rule="evenodd" d="M24.7071 7.29289C25.0976 7.68342 25.0976 8.31658 24.7071 8.70711L8.70711 24.7071C8.31658 25.0976 7.68342 25.0976 7.29289 24.7071C6.90237 24.3166 6.90237 23.6834 7.29289 23.2929L23.2929 7.29289C23.6834 6.90237 24.3166 6.90237 24.7071 7.29289Z"/>
<path fill-rule="evenodd" clip-rule="evenodd" d="M7.29289 7.29289C7.68342 6.90237 8.31658 6.90237 8.70711 7.29289L24.7071 23.2929C25.0976 23.6834 25.0976 24.3166 24.7071 24.7071C24.3166 25.0976 23.6834 25.0976 23.2929 24.7071L7.29289 8.70711C6.90237 8.31658 6.90237 7.68342 7.29289 7.29289Z"/>
</symbol>
<symbol id="threedot_icon" viewBox="0 0 4 18">
<circle cx="2" cy="2.25" r="1.875"/>
<circle cx="2" cy="9" r="1.875"/>
<circle cx="2" cy="15.75" r="1.875"/></symbol>
<symbol id="repair_icon" viewBox="0 0 32 32">
<path fill-rule="evenodd" clip-rule="evenodd" d="M23.1456 2.51731C22.1107 2.29901 21.0376 2.282 19.986 2.47361C18.3475 2.77215 16.8389 3.56295 15.6612 4.74062C14.4835 5.91829 13.6927 7.42691 13.3942 9.06541C13.0956 10.7039 13.3035 12.3945 13.9902 13.9119C14.191 14.3557 14.0959 14.8775 13.7514 15.222L2.96771 26.0058C2.56637 26.4071 2.3409 26.9514 2.3409 27.519C2.3409 28.0866 2.56637 28.6309 2.96771 29.0323C3.36905 29.4336 3.91339 29.6591 4.48098 29.6591C5.04856 29.6591 5.5929 29.4336 5.99424 29.0323L16.778 18.2486C17.1225 17.9041 17.6443 17.809 18.0881 18.0098C19.6055 18.6965 21.2961 18.9044 22.9346 18.6058C24.5731 18.3073 26.0817 17.5165 27.2594 16.3388C28.4371 15.1611 29.2279 13.6525 29.5264 12.014C29.718 10.9624 29.701 9.88933 29.4827 8.85437L24.9327 13.4044C24.4221 13.9048 23.7357 14.1851 23.0209 14.1851C22.306 14.1851 21.6197 13.9048 21.1091 13.4044L21.1008 13.3962L18.5956 10.8909C18.0952 10.3804 17.8149 9.69398 17.8149 8.97912C17.8149 8.26426 18.0952 7.5779 18.5956 7.06739L18.6038 7.05903L23.1456 2.51731ZM19.5664 0.170624C21.673 -0.213213 23.8466 0.0540863 25.7975 0.9369C26.1476 1.09531 26.3976 1.41544 26.4664 1.79344C26.5353 2.17145 26.4143 2.55919 26.1426 2.83088L20.2647 8.70882C20.1949 8.78145 20.1558 8.8783 20.1558 8.97912C20.1558 9.07995 20.1949 9.17681 20.2647 9.24944L22.7505 11.7353C22.8232 11.8051 22.92 11.8442 23.0209 11.8442C23.1217 11.8442 23.2186 11.8051 23.2912 11.7353L29.1691 5.85741C29.4408 5.58572 29.8285 5.46468 30.2066 5.53355C30.5846 5.60243 30.9047 5.85244 31.0631 6.2025C31.9459 8.15338 32.2132 10.327 31.8294 12.4336C31.4455 14.5403 30.4288 16.4799 28.9146 17.9941C27.4005 19.5082 25.4608 20.525 23.3542 20.9088C21.518 21.2434 19.631 21.0833 17.885 20.4521L7.6495 30.6875C6.80916 31.5279 5.66941 32 4.48098 32C3.29255 32 2.15279 31.5279 1.31245 30.6875C0.472101 29.8472 0 28.7074 0 27.519C0 26.3306 0.472102 25.1908 1.31245 24.3505L11.5479 14.115C10.9167 12.369 10.7566 10.482 11.0912 8.6458C11.475 6.53915 12.4918 4.59951 14.0059 3.08535C15.5201 1.5712 17.4597 0.55446 19.5664 0.170624Z"/>
</symbol>
<symbol id="restart_icon" viewBox="0 0 30 30">
<path fill-rule="evenodd" clip-rule="evenodd" d="M5.81749 6.9987H9.66536V9.66536H1.66536V1.65365H4.33203V4.67396C7.3148 1.54611 10.7142 0.332031 14.9987 0.332031C23.0989 0.332031 29.6654 6.89852 29.6654 14.9987C29.6654 23.0989 23.0989 29.6654 14.9987 29.6654C6.89852 29.6654 0.332031 23.0989 0.332031 14.9987H2.9987C2.9987 21.6261 8.37128 26.9987 14.9987 26.9987C21.6261 26.9987 26.9987 21.6261 26.9987 14.9987C26.9987 8.37128 21.6261 2.9987 14.9987 2.9987C11.211 2.9987 8.39157 4.05386 5.81749 6.9987Z"/>
</symbol>
<symbol id="maintenance_pkg_icon" viewBox="0 0 32 32">
<path fill-rule="evenodd" clip-rule="evenodd" d="M21.856 1.12C19.686 0.53 17.38 0 16 0C14.62 0 12.314 0.53 10.144 1.12C8.20562 1.65345 6.28039 2.23362 4.37001 2.86C3.81979 3.0417 3.33199 3.37493 2.96264 3.8214C2.5933 4.26787 2.35739 4.80948 2.28201 5.384C1.09001 14.338 3.85601 20.974 7.21201 25.364C8.63517 27.2419 10.3321 28.8957 12.246 30.27C12.9078 30.7456 13.609 31.1638 14.342 31.52C14.904 31.784 15.504 32 16 32C16.496 32 17.098 31.784 17.658 31.52C18.391 31.1637 19.0922 30.7456 19.754 30.27C21.668 28.8957 23.3649 27.242 24.788 25.364C28.144 20.974 30.91 14.338 29.718 5.384C29.6426 4.80948 29.4067 4.26787 29.0374 3.8214C28.668 3.37493 28.1802 3.0417 27.63 2.86C26.314 2.43 24.076 1.72 21.856 1.12ZM27.005 4.75985C25.7017 4.33402 23.5034 3.63699 21.3342 3.05073L21.3313 3.04994C19.1159 2.44761 17.0682 2 16 2C14.9323 2 12.8859 2.4472 10.6717 3.04913C8.7662 3.57358 6.8736 4.14392 4.99558 4.75965C4.8033 4.82348 4.63284 4.94011 4.50368 5.09624C4.37417 5.25279 4.29145 5.44271 4.26502 5.64416L4.26452 5.64792C3.15039 14.017 5.72862 20.1305 8.80091 24.1493L8.80601 24.156L8.80599 24.156C10.1083 25.8745 11.6611 27.3878 13.4125 28.6454L13.4131 28.6458C13.9788 29.0523 14.578 29.4101 15.2041 29.7153C15.4283 29.8201 15.6237 29.898 15.7849 29.9477C15.9141 29.9876 15.9826 29.9971 16.0001 29.9993C16.0176 29.9971 16.0866 29.9876 16.2164 29.9476C16.3779 29.8978 16.5734 29.8198 16.7956 29.7155C17.4219 29.4102 18.0211 29.0524 18.5869 28.6458L18.5875 28.6454C20.339 27.3878 21.8917 25.8745 23.194 24.1561L23.1991 24.1493L23.1991 24.1493C26.2714 20.1305 28.8496 14.017 27.7355 5.64792L27.735 5.64416C27.7086 5.44271 27.6259 5.25279 27.4963 5.09624C27.3673 4.94028 27.1971 4.82372 27.005 4.75985Z"/>
<path fill-rule="evenodd" clip-rule="evenodd" d="M16 8C15.4477 8 15 8.44772 15 9V14.0001H10C9.44772 14.0001 9 14.4478 9 15.0001C9 15.5524 9.44772 16.0001 10 16.0001H15V21C15 21.5523 15.4477 22 16 22C16.5523 22 17 21.5523 17 21V16.0001H22C22.5523 16.0001 23 15.5524 23 15.0001C23 14.4478 22.5523 14.0001 22 14.0001H17V9C17 8.44772 16.5523 8 16 8Z"/>
</symbol>
<symbol id="checkup_icon" viewBox="0 0 32 32">
<path fill-rule="evenodd" clip-rule="evenodd" d="M7.9987 6.33203C7.55667 6.33203 7.13275 6.50763 6.82019 6.82019C6.50763 7.13275 6.33203 7.55667 6.33203 7.9987V26.6654C6.33203 27.1074 6.50763 27.5313 6.82019 27.8439C7.13275 28.1564 7.55667 28.332 7.9987 28.332H23.9987C24.4407 28.332 24.8646 28.1564 25.1772 27.8439C25.4898 27.5313 25.6654 27.1074 25.6654 26.6654V7.9987C25.6654 7.55667 25.4898 7.13275 25.1772 6.82019C24.8646 6.50763 24.4407 6.33203 23.9987 6.33203H21.332C20.7797 6.33203 20.332 5.88432 20.332 5.33203C20.332 4.77975 20.7797 4.33203 21.332 4.33203H23.9987C24.9712 4.33203 25.9038 4.71834 26.5914 5.40597C27.2791 6.09361 27.6654 7.02624 27.6654 7.9987V26.6654C27.6654 27.6378 27.2791 28.5705 26.5914 29.2581C25.9038 29.9457 24.9712 30.332 23.9987 30.332H7.9987C7.02624 30.332 6.09361 29.9457 5.40597 29.2581C4.71834 28.5705 4.33203 27.6378 4.33203 26.6654V7.9987C4.33203 7.02624 4.71834 6.09361 5.40597 5.40597C6.09361 4.71834 7.02624 4.33203 7.9987 4.33203H10.6654C11.2176 4.33203 11.6654 4.77975 11.6654 5.33203C11.6654 5.88432 11.2176 6.33203 10.6654 6.33203H7.9987Z"/>
<path fill-rule="evenodd" clip-rule="evenodd" d="M12.0013 3.66797C11.8172 3.66797 11.668 3.81721 11.668 4.0013V6.66797C11.668 6.85206 11.8172 7.0013 12.0013 7.0013H20.0013C20.1854 7.0013 20.3346 6.85206 20.3346 6.66797V4.0013C20.3346 3.81721 20.1854 3.66797 20.0013 3.66797H12.0013ZM9.66797 4.0013C9.66797 2.71264 10.7126 1.66797 12.0013 1.66797H20.0013C21.29 1.66797 22.3346 2.71264 22.3346 4.0013V6.66797C22.3346 7.95663 21.29 9.0013 20.0013 9.0013H12.0013C10.7126 9.0013 9.66797 7.95663 9.66797 6.66797V4.0013Z"/>
<path fill-rule="evenodd" clip-rule="evenodd" d="M20.6644 14.2526C21.0772 14.6195 21.1143 15.2516 20.7474 15.6644L15.4141 21.6644C15.2243 21.8779 14.9523 22 14.6667 22C14.381 22 14.109 21.8779 13.9193 21.6644L11.2526 18.6644C10.8857 18.2516 10.9229 17.6195 11.3356 17.2526C11.7484 16.8857 12.3805 16.9229 12.7474 17.3356L14.6667 19.4948L19.2526 14.3356C19.6195 13.9229 20.2516 13.8857 20.6644 14.2526Z"/>
</symbol>
<symbol id="installation_icon" viewBox="0 0 32 32">
<path fill-rule="evenodd" clip-rule="evenodd" d="M6.23304 17.6563C6.47262 18.1539 6.26345 18.7515 5.76584 18.9911C3.36393 20.1475 2.33203 21.5059 2.33203 22.6658C2.33203 23.8734 3.4546 25.2935 6.0416 26.4694C8.53833 27.6043 12.0578 28.3324 15.9987 28.3324C19.9396 28.3324 23.4591 27.6043 25.9558 26.4694C28.5428 25.2935 29.6654 23.8734 29.6654 22.6658C29.6654 21.5059 28.6335 20.1475 26.2316 18.9911C25.7339 18.7515 25.5248 18.1539 25.7644 17.6563C26.0039 17.1587 26.6016 16.9495 27.0992 17.1891C29.6569 18.4205 31.6654 20.2825 31.6654 22.6658C31.6654 25.14 29.5047 27.0532 26.7834 28.2902C23.9718 29.5682 20.1579 30.3324 15.9987 30.3324C11.8395 30.3324 8.02556 29.5682 5.214 28.2902C2.4927 27.0532 0.332031 25.14 0.332031 22.6658C0.332031 20.2825 2.34054 18.4205 4.89822 17.1891C5.39583 16.9495 5.99345 17.1587 6.23304 17.6563Z"/>
<path fill-rule="evenodd" clip-rule="evenodd" d="M16.0013 1.66797C16.5536 1.66797 17.0013 2.11568 17.0013 2.66797V18.9204L20.6275 15.2942C21.0181 14.9037 21.6512 14.9037 22.0417 15.2942C22.4323 15.6847 22.4323 16.3179 22.0417 16.7084L16.7084 22.0417C16.3179 22.4323 15.6847 22.4323 15.2942 22.0417L9.96086 16.7084C9.57034 16.3179 9.57034 15.6847 9.96086 15.2942C10.3514 14.9037 10.9846 14.9037 11.3751 15.2942L15.0013 18.9204V2.66797C15.0013 2.11568 15.449 1.66797 16.0013 1.66797Z"/>
</symbol>
<symbol id="pulls_icon" viewBox="0 0 32 32">
<path fill-rule="evenodd" clip-rule="evenodd" d="M6.02656 18.4866C6.27124 19.017 6.05762 19.654 5.54942 19.9094C3.0964 21.1421 2.04255 22.59 2.04255 23.8264C2.04255 25.1137 3.18901 26.6274 5.83105 27.8809C8.3809 29.0906 11.9752 29.8667 16 29.8667C20.0248 29.8667 23.6191 29.0906 26.1689 27.8809C28.811 26.6274 29.9574 25.1137 29.9574 23.8264C29.9574 22.59 28.9036 21.1421 26.4506 19.9094C25.9424 19.654 25.7288 19.017 25.9734 18.4866C26.2181 17.9562 26.8285 17.7332 27.3367 17.9886C29.9487 19.3012 32 21.286 32 23.8264C32 26.4638 29.7934 28.5031 27.0142 29.8217C24.1428 31.1839 20.2477 31.9986 16 31.9986C11.7523 31.9986 7.85722 31.1839 4.98584 29.8217C2.20665 28.5031 0 26.4638 0 23.8264C0 21.286 2.05125 19.3012 4.66334 17.9886C5.17154 17.7332 5.78187 17.9562 6.02656 18.4866Z"/>
<path fill-rule="evenodd" clip-rule="evenodd" d="M16.5 22.8594C15.9332 22.8594 15.4737 22.3642 15.4737 21.7533L15.4737 3.77713L11.752 7.78795C11.3512 8.2199 10.7014 8.2199 10.3006 7.78795C9.8998 7.35601 9.8998 6.65569 10.3006 6.22375L15.7743 0.324761C16.1751 -0.107181 16.8249 -0.107181 17.2257 0.324761L22.6994 6.22375C23.1002 6.65569 23.1002 7.35601 22.6994 7.78795C22.2986 8.2199 21.6488 8.2199 21.248 7.78795L17.5263 3.77713L17.5263 21.7533C17.5263 22.3642 17.0668 22.8594 16.5 22.8594Z"/>
</symbol>
<symbol id="design_proposals_icon" viewBox="0 0 32 32">
<path fill-rule="evenodd" clip-rule="evenodd" d="M7.9987 6.33203C7.55667 6.33203 7.13275 6.50763 6.82019 6.82019C6.50763 7.13275 6.33203 7.55667 6.33203 7.9987V26.6654C6.33203 27.1074 6.50763 27.5313 6.82019 27.8439C7.13275 28.1564 7.55667 28.332 7.9987 28.332H23.9987C24.4407 28.332 24.8646 28.1564 25.1772 27.8439C25.4898 27.5313 25.6654 27.1074 25.6654 26.6654V7.9987C25.6654 7.55667 25.4898 7.13275 25.1772 6.82019C24.8646 6.50763 24.4407 6.33203 23.9987 6.33203H21.332C20.7797 6.33203 20.332 5.88432 20.332 5.33203C20.332 4.77975 20.7797 4.33203 21.332 4.33203H23.9987C24.9712 4.33203 25.9038 4.71834 26.5914 5.40597C27.2791 6.09361 27.6654 7.02624 27.6654 7.9987V26.6654C27.6654 27.6378 27.2791 28.5705 26.5914 29.2581C25.9038 29.9457 24.9712 30.332 23.9987 30.332H7.9987C7.02624 30.332 6.09361 29.9457 5.40597 29.2581C4.71834 28.5705 4.33203 27.6378 4.33203 26.6654V7.9987C4.33203 7.02624 4.71834 6.09361 5.40597 5.40597C6.09361 4.71834 7.02624 4.33203 7.9987 4.33203H10.6654C11.2176 4.33203 11.6654 4.77975 11.6654 5.33203C11.6654 5.88432 11.2176 6.33203 10.6654 6.33203H7.9987Z"/>
<path fill-rule="evenodd" clip-rule="evenodd" d="M11.9974 3.66797C11.8133 3.66797 11.6641 3.81721 11.6641 4.0013V6.66797C11.6641 6.85206 11.8133 7.0013 11.9974 7.0013H19.9974C20.1815 7.0013 20.3307 6.85206 20.3307 6.66797V4.0013C20.3307 3.81721 20.1815 3.66797 19.9974 3.66797H11.9974ZM9.66406 4.0013C9.66406 2.71264 10.7087 1.66797 11.9974 1.66797H19.9974C21.2861 1.66797 22.3307 2.71264 22.3307 4.0013V6.66797C22.3307 7.95663 21.2861 9.0013 19.9974 9.0013H11.9974C10.7087 9.0013 9.66406 7.95663 9.66406 6.66797V4.0013Z"/>
<path fill-rule="evenodd" clip-rule="evenodd" d="M17.828 11.9298C18.609 11.1488 19.8754 11.1488 20.6564 11.9298L22.0706 13.3441C22.8517 14.1251 22.8517 15.3914 22.0706 16.1725L14.3235 23.9196L11.689 24.8725C10.0949 25.4491 8.55138 23.9055 9.12794 22.3115L10.0809 19.677L17.828 11.9298ZM20.6564 14.7583L19.2422 13.3441L11.8101 20.7762L11.0087 22.9918L13.2243 22.1904L20.6564 14.7583Z"/>
</symbol>
<symbol id="tear_down_icon" viewBox="0 0 32 32">
<path fill-rule="evenodd" clip-rule="evenodd" d="M9.19725 11.5434C9.44955 12.0347 9.25581 12.6375 8.76453 12.8898C7.40038 13.5903 7 14.2867 7 14.7293C7 14.9796 7.11452 15.3025 7.49638 15.6881C7.88239 16.0779 8.49077 16.4748 9.3217 16.8297C10.9799 17.5379 13.3404 18.0002 16 18.0002C18.6596 18.0002 21.0201 17.5379 22.6783 16.8297C23.5092 16.4748 24.1176 16.0779 24.5036 15.6881C24.8855 15.3025 25 14.9796 25 14.7293C25 14.2867 24.5996 13.5903 23.2355 12.8898C22.7442 12.6375 22.5505 12.0347 22.8028 11.5434C23.0551 11.0521 23.6579 10.8584 24.1491 11.1107C25.6671 11.8902 27 13.0965 27 14.7293C27 15.6584 26.5549 16.4591 25.9247 17.0954C25.2986 17.7276 24.4425 18.2509 23.4638 18.6689C21.5028 19.5065 18.8632 20.0002 16 20.0002C13.1368 20.0002 10.4972 19.5065 8.53617 18.6689C7.55746 18.2509 6.70136 17.7276 6.07532 17.0954C5.44512 16.4591 5 15.6584 5 14.7293C5 13.0965 6.33291 11.8902 7.85086 11.1107C8.34215 10.8584 8.94494 11.0521 9.19725 11.5434Z"/>
<path fill-rule="evenodd" clip-rule="evenodd" d="M15.2929 1.29289C15.6834 0.902369 16.3166 0.902369 16.7071 1.29289L21.7071 6.29289C22.0976 6.68342 22.0976 7.31658 21.7071 7.70711C21.3166 8.09763 20.6834 8.09763 20.2929 7.70711L17 4.41421V14C17 14.5523 16.5523 15 16 15C15.4477 15 15 14.5523 15 14V4.41421L11.7071 7.70711C11.3166 8.09763 10.6834 8.09763 10.2929 7.70711C9.90237 7.31658 9.90237 6.68342 10.2929 6.29289L15.2929 1.29289Z"/>
<path fill-rule="evenodd" clip-rule="evenodd" d="M16.7071 30.7071C16.3166 31.0976 15.6834 31.0976 15.2929 30.7071L10.2929 25.7071C9.90237 25.3166 9.90237 24.6834 10.2929 24.2929C10.6834 23.9024 11.3166 23.9024 11.7071 24.2929L15 27.5858L15 23C15 22.4477 15.4477 22 16 22C16.5523 22 17 22.4477 17 23L17 27.5858L20.2929 24.2929C20.6834 23.9024 21.3166 23.9024 21.7071 24.2929C22.0976 24.6834 22.0976 25.3166 21.7071 25.7071L16.7071 30.7071Z"/>
</symbol>
<symbol id="equipment_icon" viewBox="0 0 32 32">
<path fill-rule="evenodd" clip-rule="evenodd" d="M27.2134 4.29289C26.8229 3.90237 26.1897 3.90237 25.7992 4.29289L22.9708 7.12132C22.5804 7.51166 22.5802 8.1444 22.9702 8.53497L17.3126 14.1926L18.7268 15.6068L24.3844 9.94918L24.385 9.94975C24.7755 10.3403 25.4087 10.3403 25.7992 9.94975L28.6276 7.12132C29.0181 6.7308 29.0181 6.09763 28.6276 5.70711L27.2134 4.29289ZM18.0189 17.7277L15.1904 14.8992L5.99805 24.0916L8.82647 26.9201L18.0189 17.7277ZM16.6046 13.485C15.8236 12.704 14.5573 12.704 13.7762 13.485L4.58383 22.6774C3.80278 23.4585 3.80278 24.7248 4.58383 25.5058L7.41226 28.3343C8.19331 29.1153 9.45964 29.1153 10.2407 28.3343L19.4331 19.1419C20.2141 18.3608 20.2141 17.0945 19.4331 16.3135L16.6046 13.485Z"/>
</symbol>
<symbol id="cable_service_icon" viewBox="0 0 25 30">
<path fill-rule="evenodd" clip-rule="evenodd" d="M0.875 1C0.875 0.447715 1.30406 0 1.83333 0H4.70833H21H23.875C24.4043 0 24.8333 0.447715 24.8333 1C24.8333 1.55228 24.4043 2 23.875 2H21V28H23.875C24.4043 28 24.8333 28.4477 24.8333 29C24.8333 29.5523 24.4043 30 23.875 30H21H4.70833H1.83333C1.30406 30 0.875 29.5523 0.875 29C0.875 28.4477 1.30406 28 1.83333 28H4.70833V2H1.83333C1.30406 2 0.875 1.55228 0.875 1ZM6.625 2V9H19.0833V2H6.625ZM19.0833 11H6.625V19H19.0833V11ZM19.0833 21H6.625V28H19.0833V21Z"/>
</symbol>
<symbol id="time_history_icon" viewBox="0 0 24 24">
<path fill-rule="evenodd" clip-rule="evenodd" d="M8 6H5.11409C7.04466 3.79137 9.15921 3 12 3C16.9706 3 21 7.02944 21 12C21 16.9706 16.9706 21 12 21C7.02944 21 3 16.9706 3 12H1C1 18.0751 5.92487 23 12 23C18.0751 23 23 18.0751 23 12C23 5.92487 18.0751 1 12 1C8.78663 1 6.23708 1.91056 4 4.25645V1.99121H2V8H8V6ZM17 11H13V6H11V13H17V11Z"/>
</symbol>
<symbol id="phone_icon" viewBox="0 0 19 24">
<path d="M4.8598 0.127714C5.51618 -0.0701856 6.22053 -0.0373077 6.85562 0.220874C7.4907 0.479056 8.0182 0.946967 8.35031 1.54671L8.4628 1.77021L9.45431 3.97671C9.75567 4.64644 9.85349 5.38999 9.73561 6.11487C9.61773 6.83975 9.28935 7.51399 8.7913 8.05371L8.5933 8.25171L7.02731 9.71121C6.74531 9.97821 6.9568 11.0117 7.9783 12.7787C8.8948 14.3687 9.6433 15.1112 10.0093 15.1517H10.0738L10.1533 15.1367L13.2283 14.1962C13.6416 14.0695 14.0826 14.0645 14.4986 14.1818C14.9147 14.2991 15.2881 14.5337 15.5743 14.8577L15.7123 15.0302L17.7463 17.8502C18.1454 18.4028 18.3445 19.0748 18.3107 19.7556C18.2769 20.4364 18.0122 21.0854 17.5603 21.5957L17.3773 21.7847L16.5628 22.5557C15.8327 23.2471 14.9195 23.7143 13.9317 23.9018C12.9438 24.0892 11.9229 23.9891 10.9903 23.6132C8.08781 22.4432 5.4508 19.7702 3.0553 15.6212C0.655304 11.4617 -0.342196 7.83621 0.103304 4.73121C0.238246 3.79244 0.62497 2.90776 1.22239 2.17115C1.81981 1.43455 2.60561 0.873534 3.4963 0.547714L3.7858 0.451714L4.8598 0.127714Z"/>
</symbol>
<symbol id="add_icon" viewBox="0 0 32 32">
<path fill-rule="evenodd" clip-rule="evenodd" d="M16 28C22.6274 28 28 22.6274 28 16C28 9.37258 22.6274 4 16 4C9.37258 4 4 9.37258 4 16C4 22.6274 9.37258 28 16 28ZM30 16C30 23.732 23.732 30 16 30C8.26801 30 2 23.732 2 16C2 8.26801 8.26801 2 16 2C23.732 2 30 8.26801 30 16Z"/>
<path fill-rule="evenodd" clip-rule="evenodd" d="M16 9.66675C16.5523 9.66675 17 10.1145 17 10.6667V21.3334C17 21.8857 16.5523 22.3334 16 22.3334C15.4477 22.3334 15 21.8857 15 21.3334V10.6667C15 10.1145 15.4477 9.66675 16 9.66675Z"/>
<path fill-rule="evenodd" clip-rule="evenodd" d="M9.66675 16C9.66675 15.4477 10.1145 15 10.6667 15H21.3334C21.8857 15 22.3334 15.4477 22.3334 16C22.3334 16.5523 21.8857 17 21.3334 17H10.6667C10.1145 17 9.66675 16.5523 9.66675 16Z"/>
</symbol>
<symbol id="calender_icon" viewBox="0 0 16 16">
<path fill-rule="evenodd" clip-rule="evenodd" d="M11.1666 0.666748C11.1666 0.390606 10.9427 0.166748 10.6666 0.166748C10.3905 0.166748 10.1666 0.390606 10.1666 0.666748V1.50008H5.83325V0.666748C5.83325 0.390606 5.60939 0.166748 5.33325 0.166748C5.05711 0.166748 4.83325 0.390606 4.83325 0.666748V1.50008H2.81473C1.72039 1.50008 0.833252 2.38722 0.833252 3.48156V6.66675V13.8519C0.833252 14.9463 1.72039 15.8334 2.81473 15.8334H13.1851C14.2794 15.8334 15.1666 14.9463 15.1666 13.8519V6.66675V3.48156C15.1666 2.38722 14.2794 1.50008 13.1851 1.50008H11.1666V0.666748ZM14.1666 6.16675V3.48156C14.1666 2.9395 13.7272 2.50008 13.1851 2.50008H11.1666V3.33341C11.1666 3.60956 10.9427 3.83341 10.6666 3.83341C10.3905 3.83341 10.1666 3.60956 10.1666 3.33341V2.50008H5.83325V3.33341C5.83325 3.60956 5.60939 3.83341 5.33325 3.83341C5.05711 3.83341 4.83325 3.60956 4.83325 3.33341V2.50008H2.81473C2.27268 2.50008 1.83325 2.9395 1.83325 3.48156V6.16675H14.1666ZM1.83325 7.16675H14.1666V13.8519C14.1666 14.394 13.7272 14.8334 13.1851 14.8334H2.81473C2.27268 14.8334 1.83325 14.394 1.83325 13.8519V7.16675Z"/>
</symbol>
<symbol id="upload_icon" viewBox="0 0 12 13">
<path fill-rule="evenodd" clip-rule="evenodd" d="M0.461538 7.44067C0.716439 7.44067 0.923077 7.64731 0.923077 7.90221V10.3638C0.923077 10.5678 1.00412 10.7634 1.14838 10.9077C1.29264 11.0519 1.4883 11.133 1.69231 11.133H10.3077C10.5117 11.133 10.7074 11.0519 10.8516 10.9077C10.9959 10.7634 11.0769 10.5678 11.0769 10.3638V7.90221C11.0769 7.64731 11.2836 7.44067 11.5385 7.44067C11.7934 7.44067 12 7.64731 12 7.90221V10.3638C12 10.8126 11.8217 11.243 11.5043 11.5604C11.187 11.8778 10.7565 12.0561 10.3077 12.0561H1.69231C1.24348 12.0561 0.813034 11.8778 0.495665 11.5604C0.178296 11.243 0 10.8126 0 10.3638V7.90221C0 7.64731 0.206638 7.44067 0.461538 7.44067Z"/>
<path fill-rule="evenodd" clip-rule="evenodd" d="M6.00011 0.0561523C6.25501 0.0561523 6.46165 0.26279 6.46165 0.517691V7.90231C6.46165 8.15721 6.25501 8.36384 6.00011 8.36384C5.74521 8.36384 5.53857 8.15721 5.53857 7.90231V0.517691C5.53857 0.26279 5.74521 0.0561523 6.00011 0.0561523Z"/>
<path fill-rule="evenodd" clip-rule="evenodd" d="M5.99989 0.0561523C6.1223 0.0561523 6.23969 0.104779 6.32624 0.191334L9.40317 3.26826C9.58341 3.4485 9.58341 3.74073 9.40317 3.92097C9.22293 4.10121 8.9307 4.10121 8.75045 3.92097L5.99989 1.1704L3.24932 3.92097C3.06908 4.10121 2.77685 4.10121 2.59661 3.92097C2.41637 3.74073 2.41637 3.4485 2.59661 3.26826L5.67353 0.191334C5.76009 0.104779 5.87748 0.0561523 5.99989 0.0561523Z"/>
</symbol>
<symbol id="expand_update_icon" viewBox="0 0 12 12">
<path fill-rule="evenodd" clip-rule="evenodd" d="M2.65 3.35L1.5 4.5V1.5H4.5L3.35 2.65L4.795 4.085L4.085 4.795L2.65 3.35ZM8.65 2.65L7.5 1.5H10.5V4.5L9.35 3.35L7.915 4.795L7.205 4.085L8.65 2.65ZM4.5 10.5L3.35 9.35L4.795 7.915L4.085 7.205L2.65 8.65L1.5 7.5V10.5H4.5ZM9.35 8.65L10.5 7.5V10.5H7.5L8.65 9.35L7.205 7.915L7.915 7.205L9.35 8.65Z"/>
</symbol>
<symbol id="collapse_icon" viewBox="0 0 16 16">
<path fill-rule="evenodd" clip-rule="evenodd" d="M4.86 3.92667L6.39333 2.39333L6.39333 6.39333L2.39333 6.39333L3.92667 4.86L2 2.94667L2.94667 2L4.86 3.92667ZM12.0733 4.86002L13.6067 6.39335L9.60666 6.39335L9.60666 2.39335L11.14 3.92668L13.0533 2.00002L14 2.94668L12.0733 4.86002ZM2.39334 9.60663L3.92667 11.14L2.00001 13.0533L2.94667 14L4.86001 12.0733L6.39334 13.6066L6.39334 9.60663L2.39334 9.60663ZM11.14 12.0733L9.60666 13.6066L9.60666 9.60663L13.6067 9.60663L12.0733 11.14L14 13.0533L13.0533 14L11.14 12.0733Z"/>
</symbol>
<symbol id="noresult_icon" viewBox="0 0 81 81">
<path fill-rule="evenodd" clip-rule="evenodd" d="M14.029 25.5H66.971L80.5 49.8522V73H0.5V49.8522L14.029 25.5ZM16.971 30.5L7.24879 48H30.5V53C30.5 55.7614 32.7386 58 35.5 58H45.5C48.2614 58 50.5 55.7614 50.5 53V48H73.7512L64.029 30.5H16.971ZM75.5 53H55.5C55.5 58.5228 51.0228 63 45.5 63H35.5C29.9772 63 25.5 58.5228 25.5 53H5.5V68H75.5V53Z"/>
<path fill-rule="evenodd" clip-rule="evenodd" d="M62.5707 11.5355L55.0707 19.0355L51.5352 15.5L59.0352 8L62.5707 11.5355Z"/>
<path fill-rule="evenodd" clip-rule="evenodd" d="M17.9996 11.5355L25.4996 19.0355L29.0352 15.5L21.5352 8L17.9996 11.5355Z"/>
<path fill-rule="evenodd" clip-rule="evenodd" d="M43 5.5V18H38V5.5H43Z"/>
</symbol>
<symbol id="well_orange_icon" viewBox="0 0 16 16">
<circle cx="8" cy="8" r="8" fill="#FF6E00"/>
<path fill-rule="evenodd" clip-rule="evenodd" d="M8 4C8.55228 4 9 4.44772 9 5V7.75C9 8.30228 8.55228 8.75 8 8.75C7.44772 8.75 7 8.30228 7 7.75V5C7 4.44772 7.44772 4 8 4Z" fill="white"/>
<path fill-rule="evenodd" clip-rule="evenodd" d="M7 10.5C7 9.94772 7.44772 9.5 8 9.5H8.00518C8.55746 9.5 9.00518 9.94772 9.00518 10.5C9.00518 11.0523 8.55746 11.5 8.00518 11.5H8C7.44772 11.5 7 11.0523 7 10.5Z" fill="white"/>
</symbol>
<symbol id="well_gray_icon" viewBox="0 0 16 16">
<circle cx="8" cy="8" r="7.24361" stroke="#CECECE" stroke-width="0.512786"/>
<circle cx="8" cy="8" r="6" fill="#F3F3F3"/>
<circle cx="8" cy="8" r="4" fill="#585858"/>
</symbol>
<symbol id="well_blue_icon" viewBox="0 0 16 16" fill="none">
<circle cx="8" cy="8" r="7.24361" stroke="#94BCFF" stroke-width="0.512786"/>
<circle cx="8" cy="8" r="6" fill="#CADDFF"/>
<circle cx="8" cy="8" r="4" fill="#0014DC"/>
</symbol>
<symbol id="well_icon" viewBox="0 0 30 31">
<path d="M7.5 0H22.5V1.875H7.5V0Z"/>
<path d="M22.5 30.002L7.5 30.002L7.5 28.127L22.5 28.127L22.5 30.002Z"/>
<path fill-rule="evenodd" clip-rule="evenodd" d="M14.9961 24.45C20.2152 24.45 24.4461 20.2191 24.4461 15C24.4461 9.78091 20.2152 5.55 14.9961 5.55C9.777 5.55 5.54609 9.78091 5.54609 15C5.54609 20.2191 9.777 24.45 14.9961 24.45ZM14.9961 26.25C21.2093 26.25 26.2461 21.2132 26.2461 15C26.2461 8.7868 21.2093 3.75 14.9961 3.75C8.78289 3.75 3.74609 8.7868 3.74609 15C3.74609 21.2132 8.78289 26.25 14.9961 26.25Z"/>
<circle cx="14.9985" cy="14.9985" r="2.59615"/>
<path fill-rule="evenodd" clip-rule="evenodd" d="M14.1367 13.8708V5.1875H15.8675V13.8708H14.1367Z"/>
<path fill-rule="evenodd" clip-rule="evenodd" d="M6.91813 20.9413L13.8086 14.9082L14.9487 16.2104L8.05827 22.2435L6.91813 20.9413Z"/>
<path fill-rule="evenodd" clip-rule="evenodd" d="M23.0272 20.9413L16.1367 14.9082L14.9966 16.2104L21.887 22.2435L23.0272 20.9413Z"/>
<path d="M12.1875 4.61523L12.1875 0.865234L17.8125 0.865234L17.8125 4.61523L12.1875 4.61523Z"/>
<path d="M17.8125 25.3828L17.8125 29.1328L12.1875 29.1328L12.1875 25.3828L17.8125 25.3828Z"/>
</symbol>
<symbol id="wells_icon" viewBox="0 0 24 24">
<path d="M17.1293 4.6875V6.375H21.6477V21.5625H2.44441V6.375H6.96284V4.6875H0.75V23.25H23.3422V4.6875H17.1293ZM10.8035 2.4375H13.2886V11.55H10.8035V2.4375ZM11.1424 19.9312H12.8368V13.2375H14.8701V0.75H9.1091V13.2375H11.1424V19.9312Z"/>
</symbol>
<symbol id="facility_icon" viewBox="0 0 24 24">
<path d="M7.24462 6.9375H3.25537L2.52412 21.5625H7.97587L7.62937 14.628L7.46625 11.388L7.24575 6.9375H7.24462ZM3.33975 5.25H7.16025L7.01962 2.4375H3.48038L3.33975 5.25ZM9.31462 14.5436L9.66788 21.5625H14.8125V9.2415L9.2055 12.3533L9.31462 14.5436ZM9.11213 10.4756L16.5 6.375V10.1786L23.25 6.375V23.25H0.75L1.875 0.75H8.625L9.111 10.4756H9.11213ZM16.5 12.1159V21.5625H21.5625V9.26287L16.5 12.1159Z"/>
</symbol>
<symbol id="person_icon" viewBox="0 0 181 160">
<path d="M92.0418 0.0134759C42.3429 -0.840259 1.3625 38.9779 0.513411 88.9488C0.0311287 117.283 12.5909 142.748 32.5886 159.682C33.8962 158.535 35.2989 157.483 36.8578 156.629L63.7128 141.901C67.2348 139.968 69.4289 136.256 69.4289 132.219V121.155C69.4289 121.155 61.546 111.675 58.5402 98.5038C56.0473 96.8817 54.3762 94.078 54.3762 90.885V78.7757C54.3762 76.112 55.5548 73.7318 57.3854 72.0653V54.5603C57.3854 54.5603 53.809 27.3193 90.4999 27.3193C127.191 27.3193 123.614 54.5603 123.614 54.5603V72.0653C125.448 73.7318 126.624 76.112 126.624 78.7757V90.885C126.624 94.9556 123.906 98.3808 120.218 99.5248C118.163 105.948 115.198 112.071 111.279 117.638C110.29 119.041 109.367 120.23 108.558 121.155V132.499C108.558 136.676 110.905 140.497 114.621 142.362L143.378 156.817C145.103 157.685 146.662 158.781 148.099 160C167.492 143.738 180.021 119.424 180.486 92.0427C181.342 42.0719 141.744 0.867211 92.0418 0.0134759Z"/>
</symbol>
<symbol id="alert_icon" viewBox="0 0 80 80">
<path fill-rule="evenodd" clip-rule="evenodd" d="M39.9999 7.15753C38.4245 7.15753 36.8756 7.56358 35.5028 8.33649C34.13 9.10941 32.9795 10.2231 32.1624 11.5701L30.0021 15.1765L30 15.1801L3.92195 58.7153L3.90164 58.7499C3.10124 60.136 2.67774 61.7075 2.67325 63.3081C2.66877 64.9087 3.08347 66.4825 3.87609 67.8731C4.66871 69.2637 5.81163 70.4225 7.19113 71.2342C8.57063 72.0459 10.1386 72.4824 11.7391 72.5L68.2333 72.5002L68.2607 72.4999C69.8613 72.4823 71.4293 72.0459 72.8088 71.2342C74.1883 70.4225 75.3312 69.2637 76.1238 67.8731C76.9164 66.4825 77.3311 64.9087 77.3266 63.3081C77.3222 61.7075 76.8987 60.136 76.0983 58.7499L76.0779 58.7153L47.8446 11.582L47.8374 11.5701C47.0204 10.2231 45.8699 9.10941 44.4971 8.33649C43.1243 7.56358 41.5754 7.15753 39.9999 7.15753ZM36.4374 14.1632L36.4407 14.1579C36.8119 13.548 37.3336 13.0437 37.9558 12.6934C38.5798 12.3421 39.2838 12.1575 39.9999 12.1575C40.7161 12.1575 41.4201 12.3421 42.0441 12.6934C42.6663 13.0437 43.188 13.548 43.5592 14.1579L43.5624 14.1632L71.7771 61.2655C72.1352 61.8918 72.3246 62.6004 72.3267 63.3221C72.3287 64.0496 72.1402 64.765 71.7799 65.3971C71.4196 66.0292 70.9001 66.5559 70.2731 66.9249C69.6494 67.2918 68.9411 67.49 68.2177 67.5H11.7822C11.0588 67.49 10.3504 67.2918 9.72682 66.9249C9.09977 66.5559 8.58026 66.0292 8.21998 65.3971C7.8597 64.765 7.6712 64.0496 7.67323 63.3221C7.67525 62.6005 7.86466 61.8918 8.22276 61.2655L36.4374 14.1632ZM42.4999 30C42.4999 28.6193 41.3806 27.5 39.9999 27.5C38.6192 27.5 37.4999 28.6193 37.4999 30V43.3334C37.4999 44.7141 38.6192 45.8334 39.9999 45.8334C41.3806 45.8334 42.4999 44.7141 42.4999 43.3334V30ZM39.9999 54.1667C38.6192 54.1667 37.4999 55.2859 37.4999 56.6667C37.4999 58.0474 38.6192 59.1667 39.9999 59.1667H40.0332C41.4139 59.1667 42.5332 58.0474 42.5332 56.6667C42.5332 55.2859 41.4139 54.1667 40.0332 54.1667H39.9999Z"/>
</symbol>
<symbol id="test_tube_icon" viewBox="0 0 32 32">
<path d="M22.7805 0H10V2.61078H10.9734V26.5824C10.9734 28.0193 11.5442 29.3972 12.5601 30.4132C13.5761 31.4292 14.9541 32 16.3909 32C17.8278 32 19.2057 31.4292 20.2217 30.4132C21.2377 29.3972 21.8085 28.0193 21.8085 26.5824V2.61078H22.7819L22.7805 0ZM20.2204 26.5851C20.1948 27.5822 19.7809 28.5299 19.0668 29.2264C18.3527 29.9228 17.395 30.3129 16.3975 30.3136C15.4001 30.3143 14.4418 29.9255 13.7267 29.2301C13.0117 28.5347 12.5965 27.5875 12.5694 26.5904V25.1984H15.2002V23.665H12.5694V20.9649H15.2002V19.3941H12.5694V16.694H15.2002V15.1233H12.5694V12.4232H15.2002V10.8898H12.5694V8.18967H15.2002V6.65628H12.5694V2.58944H20.2204V26.5851Z"/>
</symbol>
<symbol id="chat_msg_filled_icon" viewBox="0 0 21 20">
<path d="M17.418 1.66602H4.08464C3.16797 1.66602 2.41797 2.41602 2.41797 3.33268V18.3327L5.7513 14.9993H17.418C18.3346 14.9993 19.0846 14.2493 19.0846 13.3327V3.33268C19.0846 2.41602 18.3346 1.66602 17.418 1.66602Z"/>
</symbol>
<symbol id="substract_circle_icon" viewBox="0 0 24 24">
<path fill-rule="evenodd" clip-rule="evenodd" d="M12 21C16.9706 21 21 16.9706 21 12C21 7.02944 16.9706 3 12 3C7.02944 3 3 7.02944 3 12C3 16.9706 7.02944 21 12 21ZM22.5 12C22.5 17.799 17.799 22.5 12 22.5C6.20101 22.5 1.5 17.799 1.5 12C1.5 6.20101 6.20101 1.5 12 1.5C17.799 1.5 22.5 6.20101 22.5 12Z"/>
<path fill-rule="evenodd" clip-rule="evenodd" d="M7.25 12C7.25 11.5858 7.58579 11.25 8 11.25H16C16.4142 11.25 16.75 11.5858 16.75 12C16.75 12.4142 16.4142 12.75 16 12.75H8C7.58579 12.75 7.25 12.4142 7.25 12Z"/>
</symbol>
<symbol id="speaker_icon" viewBox="0 0 21 20">
<path fill-rule="evenodd" clip-rule="evenodd" d="M11 3.37532C11.824 2.75728 13 3.34526 13 4.37532V15.6253C13 16.6554 11.824 17.2434 11 16.6253L7.16667 13.7503H3.625C2.93464 13.7503 2.375 13.1907 2.375 12.5003V7.50032C2.375 6.80996 2.93464 6.25032 3.625 6.25032H7.16667L11 3.37532ZM11.75 4.37532L7.91667 7.25032C7.7003 7.41259 7.43713 7.50032 7.16667 7.50032H3.625V12.5003H7.16667C7.43713 12.5003 7.7003 12.588 7.91667 12.7503L11.75 15.6253V4.37532Z"/>
<path fill-rule="evenodd" clip-rule="evenodd" d="M14.2695 12.3486C14.655 10.8068 14.655 9.19369 14.2695 7.6518L15.4822 7.34863C15.9174 9.08957 15.9174 10.9109 15.4822 12.6518L14.2695 12.3486Z"/>
<path fill-rule="evenodd" clip-rule="evenodd" d="M16.2188 14.6689C18.0041 11.8125 18.0041 8.18793 16.2188 5.33144L17.2787 4.66895C19.3174 7.93077 19.3174 12.0696 17.2787 15.3314L16.2188 14.6689Z"/>
</symbol>
<symbol id="mic_icon" viewBox="0 0 21 20">
<path fill-rule="evenodd" clip-rule="evenodd" d="M7.375 5.625V10.625C7.375 12.3509 8.77411 13.75 10.5 13.75C12.2259 13.75 13.625 12.3509 13.625 10.625V5.625C13.625 3.89911 12.2259 2.5 10.5 2.5C8.77411 2.5 7.375 3.89911 7.375 5.625ZM6.125 5.625V10.625C6.125 13.0412 8.08375 15 10.5 15C12.9162 15 14.875 13.0412 14.875 10.625V5.625C14.875 3.20875 12.9162 1.25 10.5 1.25C8.08375 1.25 6.125 3.20875 6.125 5.625Z"/>
<path fill-rule="evenodd" clip-rule="evenodd" d="M15.4603 11.871C15.4628 11.8513 15.4661 11.8318 15.4702 11.8126L15.4603 11.871ZM15.4702 11.8126C15.4746 11.7916 15.4799 11.7708 15.4861 11.7504C15.5718 11.4662 15.8212 11.25 16.124 11.25C16.4692 11.25 16.7522 11.5305 16.7178 11.874C16.7126 11.9258 16.7067 11.9776 16.7002 12.0292C16.5281 13.3995 15.9053 14.6825 14.9184 15.6694C13.7463 16.8415 12.1566 17.5 10.499 17.5C8.84138 17.5 7.25167 16.8415 6.07957 15.6694C5.33787 14.9277 4.80186 14.0188 4.5082 13.0313C4.39638 12.6553 4.3197 12.2679 4.28019 11.874C4.24574 11.5305 4.5288 11.25 4.87398 11.25C5.17678 11.25 5.42618 11.4662 5.5119 11.7504C5.51806 11.7708 5.52337 11.7916 5.52779 11.8126C5.532 11.8326 5.5354 11.8529 5.53798 11.8734C5.56852 12.1165 5.61678 12.3561 5.68202 12.5905C5.91098 13.4132 6.34901 14.1711 6.96345 14.7855C7.90113 15.7232 9.1729 16.25 10.499 16.25C11.8251 16.25 13.0968 15.7232 14.0345 14.7855C14.824 13.996 15.3223 12.9696 15.46 11.8734"/>
<path d="M9.875 16.875H11.125V18.125H9.875V16.875Z"/>
<path d="M6.125 18.75C6.125 18.4048 6.40482 18.125 6.75 18.125H14.25C14.5952 18.125 14.875 18.4048 14.875 18.75C14.875 19.0952 14.5952 19.375 14.25 19.375H6.75C6.40482 19.375 6.125 19.0952 6.125 18.75Z"/>
</symbol>
<symbol id="mic_mute_icon" viewBox="0 0 21 20">
<path fill-rule="evenodd" clip-rule="evenodd" d="M3.68997 17.8476C3.6356 17.9573 3.61426 18.0815 3.63011 18.2048C3.65119 18.3688 3.7364 18.5177 3.86709 18.619C3.97618 18.7037 4.11024 18.7499 4.24834 18.7503C4.34379 18.7501 4.43791 18.728 4.5235 18.6857C4.60909 18.6435 4.68386 18.5822 4.74209 18.5065L6.82959 15.794C7.73872 16.4015 8.78474 16.7731 9.87334 16.8753V17.5003H7.37334C7.20758 17.5003 7.04861 17.5661 6.9314 17.6833C6.81419 17.8006 6.74834 17.9595 6.74834 18.1253C6.74834 18.291 6.81419 18.45 6.9314 18.5672C7.04861 18.6844 7.20758 18.7503 7.37334 18.7503H13.6233C13.7891 18.7503 13.9481 18.6844 14.0653 18.5672C14.1825 18.45 14.2483 18.291 14.2483 18.1253C14.2483 17.9595 14.1825 17.8006 14.0653 17.6833C13.9481 17.5661 13.7891 17.5003 13.6233 17.5003H11.1233V16.8753C14.2796 16.594 16.7483 14.194 16.7483 11.2815V8.75029C16.7483 8.58453 16.6825 8.42556 16.5653 8.30835C16.4481 8.19114 16.2891 8.12529 16.1233 8.12529C15.9576 8.12529 15.7986 8.19114 15.6814 8.30835C15.5642 8.42556 15.4983 8.58453 15.4983 8.75029V11.2503C15.4983 13.6628 13.2546 15.6253 10.4983 15.6253C9.47106 15.6307 8.46332 15.3446 7.59209 14.8003L8.02959 14.2315C8.75504 14.7332 9.61634 15.0014 10.4983 15.0003C11.6587 15.0003 12.7715 14.5394 13.5919 13.7189C14.4124 12.8984 14.8733 11.7856 14.8733 10.6253V5.35654L17.2546 2.23154C17.3464 2.10073 17.3845 1.93974 17.3613 1.78166C17.338 1.62357 17.2551 1.48039 17.1296 1.38154C16.9985 1.28073 16.8329 1.23597 16.6689 1.25706C16.57 1.26977 16.4766 1.30578 16.3958 1.36101L3.68997 17.8476ZM12.708 12.835C13.2941 12.2489 13.6233 11.4541 13.6233 10.6253V6.98779L8.79834 13.2378C9.30147 13.5738 9.89333 13.7522 10.4983 13.7503C11.3271 13.7503 12.122 13.421 12.708 12.835Z"/>
<path d="M13.7663 2.72527C13.3985 2.31212 12.9531 1.9695 12.4512 1.71911C11.5589 1.27405 10.5414 1.14712 9.56722 1.35932C8.593 1.57152 7.72048 2.11013 7.09417 2.88594C6.46786 3.66175 6.12534 4.62822 6.12334 5.62529V10.6253C6.12394 11.1821 6.23076 11.7295 6.43389 12.2395L7.39522 10.9921C7.38079 10.8708 7.37343 10.7483 7.37334 10.6253V5.62529C7.37256 4.85032 7.65976 4.10271 8.1792 3.52758C8.69863 2.95246 9.41323 2.59085 10.1843 2.51297C10.9553 2.43509 11.7278 2.64648 12.3518 3.10611C12.5951 3.28533 12.809 3.49731 12.9886 3.73428L13.7663 2.72527Z"/>
<path d="M5.89123 12.9436C5.64177 12.4186 5.50566 11.8416 5.49834 11.2503V8.75029C5.49834 8.58453 5.43249 8.42556 5.31528 8.30835C5.19807 8.19114 5.0391 8.12529 4.87334 8.12529C4.70758 8.12529 4.54861 8.19114 4.4314 8.30835C4.31418 8.42556 4.24834 8.58453 4.24834 8.75029V11.2503C4.25555 11.951 4.4018 12.6432 4.6786 13.287C4.7878 13.5409 4.91646 13.7853 5.06314 14.0181L5.89123 12.9436Z"/>
</symbol>
<symbol id="back_arrow_icon" viewBox="0 0 24 24">
<path fill-rule="evenodd" clip-rule="evenodd" d="M19.75 12C19.75 12.4142 19.4142 12.75 19 12.75L5 12.75C4.58579 12.75 4.25 12.4142 4.25 12C4.25 11.5858 4.58579 11.25 5 11.25L19 11.25C19.4142 11.25 19.75 11.5858 19.75 12Z"/>
<path fill-rule="evenodd" clip-rule="evenodd" d="M12.5303 19.5303C12.2374 19.8232 11.7626 19.8232 11.4697 19.5303L4.46967 12.5303C4.32901 12.3897 4.25 12.1989 4.25 12C4.25 11.8011 4.32901 11.6103 4.46967 11.4697L11.4697 4.46967C11.7626 4.17678 12.2374 4.17678 12.5303 4.46967C12.8232 4.76256 12.8232 5.23744 12.5303 5.53033L6.06066 12L12.5303 18.4697C12.8232 18.7626 12.8232 19.2374 12.5303 19.5303Z"/>
</symbol>
<symbol id="logout_icon" viewBox="0 0 24 24">
<path d="M20 10l-5 5v-4.24H8v-1.5h7V5zM10 20a10 10 0 1 1 0-20v1.5a8.5 8.5 0 1 0 0 17z"></path>
</symbol>
<symbol id="info_icon" viewBox="0 0 32 32">
<path fill-rule="evenodd" clip-rule="evenodd" d="M16 28C22.6274 28 28 22.6274 28 16C28 9.37258 22.6274 4 16 4C9.37258 4 4 9.37258 4 16C4 22.6274 9.37258 28 16 28ZM30 16C30 23.732 23.732 30 16 30C8.26801 30 2 23.732 2 16C2 8.26801 8.26801 2 16 2C23.732 2 30 8.26801 30 16Z"/>
<path fill-rule="evenodd" clip-rule="evenodd" d="M16 15C16.5523 15 17 15.4477 17 16V21.3333C17 21.8856 16.5523 22.3333 16 22.3333C15.4477 22.3333 15 21.8856 15 21.3333V16C15 15.4477 15.4477 15 16 15Z"/>
<path fill-rule="evenodd" clip-rule="evenodd" d="M15 10.6667C15 10.1144 15.4477 9.66666 16 9.66666H16.0133C16.5656 9.66666 17.0133 10.1144 17.0133 10.6667C17.0133 11.2189 16.5656 11.6667 16.0133 11.6667H16C15.4477 11.6667 15 11.2189 15 10.6667Z"/>
</symbol>
<symbol id="attach_icon" viewBox="0 0 8 16">
<path d="M0.5 3C0.5 2.33696 0.763392 1.70107 1.23223 1.23223C1.70107 0.763392 2.33696 0.5 3 0.5C3.66304 0.5 4.29893 0.763392 4.76777 1.23223C5.23661 1.70107 5.5 2.33696 5.5 3V12C5.5 12.3978 5.34196 12.7794 5.06066 13.0607C4.77936 13.342 4.39782 13.5 4 13.5C3.60218 13.5 3.22064 13.342 2.93934 13.0607C2.65804 12.7794 2.5 12.3978 2.5 12V5C2.5 4.86739 2.55268 4.74021 2.64645 4.64645C2.74021 4.55268 2.86739 4.5 3 4.5C3.13261 4.5 3.25979 4.55268 3.35355 4.64645C3.44732 4.74021 3.5 4.86739 3.5 5V12C3.5 12.1326 3.55268 12.2598 3.64645 12.3536C3.74021 12.4473 3.86739 12.5 4 12.5C4.13261 12.5 4.25979 12.4473 4.35355 12.3536C4.44732 12.2598 4.5 12.1326 4.5 12V3C4.5 2.80302 4.4612 2.60796 4.38582 2.42597C4.31044 2.24399 4.19995 2.07863 4.06066 1.93934C3.92137 1.80005 3.75601 1.68956 3.57403 1.61418C3.39204 1.5388 3.19698 1.5 3 1.5C2.80302 1.5 2.60796 1.5388 2.42597 1.61418C2.24399 1.68956 2.07863 1.80005 1.93934 1.93934C1.80005 2.07863 1.68956 2.24399 1.61418 2.42597C1.5388 2.60796 1.5 2.80302 1.5 3V12C1.5 12.663 1.76339 13.2989 2.23223 13.7678C2.70107 14.2366 3.33696 14.5 4 14.5C4.66304 14.5 5.29893 14.2366 5.76777 13.7678C6.23661 13.2989 6.5 12.663 6.5 12V5C6.5 4.86739 6.55268 4.74021 6.64645 4.64645C6.74021 4.55268 6.86739 4.5 7 4.5C7.13261 4.5 7.25979 4.55268 7.35355 4.64645C7.44732 4.74021 7.5 4.86739 7.5 5V12C7.5 12.9283 7.13125 13.8185 6.47487 14.4749C5.8185 15.1313 4.92826 15.5 4 15.5C3.07174 15.5 2.1815 15.1313 1.52513 14.4749C0.868749 13.8185 0.5 12.9283 0.5 12V3Z"/>
</symbol>
<symbol id="edit_icon" viewBox="0 0 18 18">
<path fill-rule="evenodd" clip-rule="evenodd" d="M17.809 2.7405L15.27 0.19125C15.1464 0.06975 14.9824 0 14.8094 0C14.6386 0 14.4724 0.06975 14.351 0.19125L5.71618 8.84025C5.63754 8.919 5.58137 9.0135 5.55216 9.11925L4.52533 12.672C4.46017 12.897 4.52308 13.14 4.6871 13.3065C4.81068 13.4325 4.97695 13.5 5.14997 13.5C5.20614 13.5 5.26456 13.491 5.32073 13.4753L8.90004 12.4898C9.00789 12.4605 9.10676 12.402 9.1854 12.321L17.8135 3.654C18.0629 3.40425 18.0629 2.99475 17.809 2.7405ZM6.09142 11.9205L6.55428 10.3163L7.07556 9.31275L14.8094 1.56825L16.4362 3.1995L8.72478 10.9508L7.72042 11.4705L6.09142 11.9205Z"/>
<path fill-rule="evenodd" clip-rule="evenodd" d="M0 6C0 4.34315 1.34315 3 3 3H6C6.41421 3 6.75 3.33579 6.75 3.75C6.75 4.16421 6.41421 4.5 6 4.5H3C2.17157 4.5 1.5 5.17157 1.5 6V15C1.5 15.8284 2.17157 16.5 3 16.5H12.75C13.5784 16.5 14.25 15.8284 14.25 15V12C14.25 11.5858 14.5858 11.25 15 11.25C15.4142 11.25 15.75 11.5858 15.75 12V15C15.75 16.6569 14.4069 18 12.75 18H3C1.34315 18 0 16.6569 0 15V6Z"/>
</symbol>
<symbol id="download_icon" viewBox="0 0 18 18">
<path fill-rule="evenodd" clip-rule="evenodd" d="M2.25 10.6875C2.56066 10.6875 2.8125 10.9393 2.8125 11.25V14.25C2.8125 14.4986 2.91127 14.7371 3.08709 14.9129C3.2629 15.0887 3.50136 15.1875 3.75 15.1875H14.25C14.4986 15.1875 14.7371 15.0887 14.9129 14.9129C15.0887 14.7371 15.1875 14.4986 15.1875 14.25V11.25C15.1875 10.9393 15.4393 10.6875 15.75 10.6875C16.0607 10.6875 16.3125 10.9393 16.3125 11.25V14.25C16.3125 14.797 16.0952 15.3216 15.7084 15.7084C15.3216 16.0952 14.797 16.3125 14.25 16.3125H3.75C3.20299 16.3125 2.67839 16.0952 2.29159 15.7084C1.9048 15.3216 1.6875 14.797 1.6875 14.25V11.25C1.6875 10.9393 1.93934 10.6875 2.25 10.6875Z"/>
<path fill-rule="evenodd" clip-rule="evenodd" d="M4.85225 7.10225C5.07192 6.88258 5.42808 6.88258 5.64775 7.10225L9 10.4545L12.3523 7.10225C12.5719 6.88258 12.9281 6.88258 13.1477 7.10225C13.3674 7.32192 13.3674 7.67808 13.1477 7.89775L9.39775 11.6477C9.29226 11.7532 9.14918 11.8125 9 11.8125C8.85082 11.8125 8.70774 11.7532 8.60225 11.6477L4.85225 7.89775C4.63258 7.67808 4.63258 7.32192 4.85225 7.10225Z"/>
<path fill-rule="evenodd" clip-rule="evenodd" d="M9 1.6875C9.31066 1.6875 9.5625 1.93934 9.5625 2.25V11.25C9.5625 11.5607 9.31066 11.8125 9 11.8125C8.68934 11.8125 8.4375 11.5607 8.4375 11.25V2.25C8.4375 1.93934 8.68934 1.6875 9 1.6875Z"/>
</symbol>
<symbol id="img_icon" viewBox="0 0 18 18">
<path fill-rule="evenodd" clip-rule="evenodd" d="M3.75 2.8125C3.23223 2.8125 2.8125 3.23223 2.8125 3.75V14.25C2.8125 14.7678 3.23223 15.1875 3.75 15.1875H14.25C14.7678 15.1875 15.1875 14.7678 15.1875 14.25V3.75C15.1875 3.23223 14.7678 2.8125 14.25 2.8125H3.75ZM1.6875 3.75C1.6875 2.61091 2.61091 1.6875 3.75 1.6875H14.25C15.3891 1.6875 16.3125 2.61091 16.3125 3.75V14.25C16.3125 15.3891 15.3891 16.3125 14.25 16.3125H3.75C2.61091 16.3125 1.6875 15.3891 1.6875 14.25V3.75Z" fill-opacity="0.75"/>
<path fill-rule="evenodd" clip-rule="evenodd" d="M6.375 5.8125C6.06434 5.8125 5.8125 6.06434 5.8125 6.375C5.8125 6.68566 6.06434 6.9375 6.375 6.9375C6.68566 6.9375 6.9375 6.68566 6.9375 6.375C6.9375 6.06434 6.68566 5.8125 6.375 5.8125ZM4.6875 6.375C4.6875 5.44302 5.44302 4.6875 6.375 4.6875C7.30698 4.6875 8.0625 5.44302 8.0625 6.375C8.0625 7.30698 7.30698 8.0625 6.375 8.0625C5.44302 8.0625 4.6875 7.30698 4.6875 6.375Z" fill-opacity="0.75"/>
<path fill-rule="evenodd" clip-rule="evenodd" d="M11.6023 7.10225C11.8219 6.88258 12.1781 6.88258 12.3977 7.10225L16.1477 10.8523C16.3674 11.0719 16.3674 11.4281 16.1477 11.6477C15.9281 11.8674 15.5719 11.8674 15.3523 11.6477L12 8.29549L4.14775 16.1477C3.92808 16.3674 3.57192 16.3674 3.35225 16.1477C3.13258 15.9281 3.13258 15.5719 3.35225 15.3523L11.6023 7.10225Z" fill-opacity="0.75"/>
<symbol id="alert_filled_icon" viewBox="0 0 16 16">
<path d="M15.0397 10.8671L9.92641 2.38711C9.71964 2.06366 9.43477 1.79746 9.09806 1.61307C8.76135 1.42868 8.38364 1.33203 7.99974 1.33203C7.61585 1.33203 7.23813 1.42868 6.90142 1.61307C6.56471 1.79746 6.27984 2.06366 6.07307 2.38711L0.959741 10.8671C0.77911 11.1682 0.680934 11.5116 0.675082 11.8626C0.669231 12.2137 0.755911 12.5602 0.926408 12.8671C1.12353 13.2126 1.40885 13.4996 1.75321 13.6987C2.09757 13.8978 2.48862 14.002 2.88641 14.0004H13.1131C13.5082 14.0047 13.8975 13.9046 14.2417 13.7103C14.5858 13.516 14.8726 13.2343 15.0731 12.8938C15.2486 12.5836 15.338 12.2322 15.3322 11.8759C15.3263 11.5196 15.2253 11.1713 15.0397 10.8671ZM7.99974 11.3338C7.86789 11.3338 7.73899 11.2947 7.62936 11.2214C7.51973 11.1482 7.43428 11.0441 7.38382 10.9222C7.33336 10.8004 7.32016 10.6664 7.34588 10.5371C7.37161 10.4077 7.4351 10.2889 7.52834 10.1957C7.62157 10.1025 7.74036 10.039 7.86968 10.0133C7.999 9.98753 8.13305 10.0007 8.25486 10.0512C8.37668 10.1017 8.4808 10.1871 8.55405 10.2967C8.62731 10.4064 8.66641 10.5353 8.66641 10.6671C8.66641 10.8439 8.59617 11.0135 8.47115 11.1385C8.34612 11.2635 8.17655 11.3338 7.99974 11.3338ZM8.66641 8.66711C8.66641 8.84392 8.59617 9.01349 8.47115 9.13852C8.34612 9.26354 8.17655 9.33378 7.99974 9.33378C7.82293 9.33378 7.65336 9.26354 7.52834 9.13852C7.40331 9.01349 7.33307 8.84392 7.33307 8.66711V6.00045C7.33307 5.82364 7.40331 5.65407 7.52834 5.52904C7.65336 5.40402 7.82293 5.33378 7.99974 5.33378C8.17655 5.33378 8.34612 5.40402 8.47115 5.52904C8.59617 5.65407 8.66641 5.82364 8.66641 6.00045V8.66711Z"/>
</symbol>
<symbol id="checkbox_circle_icon" viewBox="0 0 16 16">
<circle cx="8" cy="8" r="6" fill="#02B935"/>
<path fill-rule="evenodd" clip-rule="evenodd" d="M11.6233 5.63465C11.8445 5.85584 11.8445 6.21447 11.6233 6.43567L7.19272 10.8662C7.0865 10.9724 6.94243 11.0321 6.79221 11.0321C6.64199 11.0321 6.49792 10.9724 6.3917 10.8662L4.37781 8.85233C4.15662 8.63114 4.15662 8.27251 4.37781 8.05131C4.59901 7.83012 4.95763 7.83012 5.17883 8.05131L6.79221 9.66469L10.8223 5.63465C11.0434 5.41345 11.4021 5.41345 11.6233 5.63465Z" fill="white"/>
</symbol>
<symbol id="save_icon" viewBox="0 0 20 20" fill="none">
<path d="M19.438 4.71837V4.61519C19.4785 4.74112 19.5 4.87884 19.5 5.03113V18.188C19.5 18.5552 19.3758 18.8551 19.1154 19.1154C18.8551 19.3758 18.5552 19.5 18.188 19.5H1.81205C1.44483 19.5 1.14494 19.3758 0.884566 19.1154C0.827415 19.0583 0.776825 18.9992 0.732669 18.938H0.809935C0.845408 18.9847 0.884606 19.0296 0.927479 19.0725C1.16803 19.3131 1.47253 19.438 1.81205 19.438H18.188C18.5275 19.438 18.832 19.3131 19.0725 19.0725C19.3131 18.832 19.438 18.5275 19.438 18.188V4.71837ZM19.1154 4.07215C19.2023 4.15904 19.2876 4.27819 19.3658 4.43913L19.2915 4.36481L15.6352 0.708473L15.5609 0.634156C15.7218 0.712444 15.841 0.797676 15.9279 0.884567L19.1154 4.07215ZM14.9689 0.5C15.1212 0.5 15.2589 0.521448 15.3848 0.562027H15.2816H1.81205C1.47253 0.562027 1.16803 0.686931 0.927479 0.927479C0.884606 0.970351 0.845407 1.01525 0.809934 1.06203H0.732669C0.776825 1.00077 0.827415 0.941718 0.884567 0.884567C1.14494 0.624193 1.44483 0.5 1.81205 0.5H14.9689ZM0.5 1.81205C0.5 1.66318 0.520409 1.52538 0.562027 1.3968V1.81205V4.71837V18.188V18.6032C0.520409 18.4746 0.5 18.3368 0.5 18.188V1.81205ZM11.3027 14.5836L11.3023 14.584C10.9377 14.949 10.5128 15.1251 10 15.1251C9.48716 15.1251 9.06227 14.949 8.6977 14.584L8.69732 14.5836C8.33236 14.2191 8.15619 13.7942 8.15619 13.2813C8.15619 12.7685 8.33236 12.3436 8.69732 11.979L8.6977 11.9787C9.06227 11.6137 9.48716 11.4375 10 11.4375C10.5128 11.4375 10.9377 11.6137 11.3023 11.9787L11.3027 11.979C11.6676 12.3436 11.8438 12.7685 11.8438 13.2813C11.8438 13.7942 11.6676 14.2191 11.3027 14.5836ZM12.0484 4.0205L12.0485 4.02053C12.1129 4.08115 12.1566 4.16195 12.1566 4.31261V6.0624C12.1566 6.17947 12.121 6.26579 12.0378 6.34907C11.9538 6.43275 11.8669 6.46842 11.7498 6.46842H4.31261C4.16195 6.46842 4.08115 6.42477 4.02053 6.36033L4.02002 6.35979C3.94319 6.27836 3.90584 6.1887 3.90584 6.0624V4.31261C3.90584 4.15296 3.95066 4.06895 4.00937 4.01043L4.01042 4.00936C4.06895 3.95066 4.15296 3.90584 4.31261 3.90584H11.7498C11.8761 3.90584 11.9663 3.94322 12.0484 4.0205Z"/>
</symbol>
<symbol id="attachment_icon" viewBox="0 0 28 28">
<path fill-rule="evenodd" clip-rule="evenodd" d="M8.6665 22C7.93317 22 7.30561 21.7391 6.78384 21.2173C6.26117 20.6947 5.99984 20.0667 5.99984 19.3333V3.33333C5.99984 2.6 6.26117 1.972 6.78384 1.44933C7.30561 0.927553 7.93317 0.666664 8.6665 0.666664H24.6665C25.3998 0.666664 26.0278 0.927553 26.5505 1.44933C27.0723 1.972 27.3332 2.6 27.3332 3.33333V19.3333C27.3332 20.0667 27.0723 20.6947 26.5505 21.2173C26.0278 21.7391 25.3998 22 24.6665 22H8.6665ZM3.33317 27.3333C2.59984 27.3333 1.97228 27.0724 1.4505 26.5507C0.927837 26.028 0.666504 25.4 0.666504 24.6667V6H3.33317V24.6667H21.9998V27.3333H3.33317ZM14.0174 15.9819C14.6957 16.6606 15.5233 17 16.5 17C17.4767 17 18.3043 16.6606 18.9826 15.9819C19.6609 15.3032 20 14.4751 20 13.4977V7.59276H18.7791V13.4977C18.7791 14.1312 18.5575 14.6697 18.1143 15.1131C17.6712 15.5566 17.1331 15.7783 16.5 15.7783C15.8669 15.7783 15.3288 15.5566 14.8857 15.1131C14.4425 14.6697 14.2209 14.1312 14.2209 13.4977V7.59276C14.2209 7.21267 14.3521 6.8914 14.6143 6.62896C14.8766 6.36652 15.1977 6.23529 15.5775 6.23529C15.9574 6.23529 16.2784 6.36652 16.5407 6.62896C16.803 6.8914 16.9341 7.21267 16.9341 7.59276V12.8462C16.9341 12.9728 16.8934 13.0791 16.812 13.1649C16.7306 13.251 16.6266 13.2941 16.5 13.2941C16.3734 13.2941 16.2694 13.251 16.188 13.1649C16.1066 13.0791 16.0659 12.9728 16.0659 12.8462V7.59276H14.8314V12.8462C14.8314 13.3077 14.9942 13.7014 15.3198 14.0271C15.6453 14.3529 16.0388 14.5158 16.5 14.5158C16.9612 14.5158 17.3547 14.3529 17.6802 14.0271C18.0058 13.7014 18.1686 13.3077 18.1686 12.8462V7.59276C18.1686 6.87783 17.9154 6.26697 17.4089 5.76018C16.9025 5.25339 16.292 5 15.5775 5C14.863 5 14.2549 5.25339 13.7532 5.76018C13.2511 6.26697 13 6.87783 13 7.59276V13.4977C13 14.4751 13.3391 15.3032 14.0174 15.9819Z"/>
</symbol>
<!-- CX Update  -->
<symbol id="back_btn_icon" viewBox="0 0 18 12">
<path d="M6 12L0 6L6 0L7.4 1.4L3.8 5H16V1H18V7H3.8L7.4 10.6L6 12Z" fill="white"/>
</symbol>
<symbol id="bell_icon" viewBox="0 0 14 18">
<path d="M0.333008 14.8327V13.166H1.99967V7.33268C1.99967 6.1799 2.3469 5.15546 3.04134 4.25935C3.73579 3.36379 4.63856 2.77713 5.74967 2.49935V1.91602C5.74967 1.56879 5.87134 1.27379 6.11467 1.03102C6.35745 0.787682 6.65245 0.666016 6.99967 0.666016C7.3469 0.666016 7.6419 0.787682 7.88468 1.03102C8.12801 1.27379 8.24967 1.56879 8.24967 1.91602V2.49935C9.36079 2.77713 10.2636 3.36379 10.958 4.25935C11.6525 5.15546 11.9997 6.1799 11.9997 7.33268V13.166H13.6663V14.8327H0.333008ZM6.99967 17.3327C6.54134 17.3327 6.14912 17.1696 5.82301 16.8435C5.49634 16.5168 5.33301 16.1243 5.33301 15.666H8.66634C8.66634 16.1243 8.50329 16.5168 8.17718 16.8435C7.85051 17.1696 7.45801 17.3327 6.99967 17.3327Z"/>
</symbol>
<symbol id="call_icon" viewBox="0 0 24 24">
<path d="M16.95 18C14.8 18 12.7043 17.5207 10.663 16.562C8.621 15.604 6.81267 14.3373 5.238 12.762C3.66267 11.1873 2.396 9.379 1.438 7.337C0.479334 5.29567 0 3.2 0 1.05C0 0.75 0.0999999 0.5 0.3 0.3C0.5 0.0999999 0.75 0 1.05 0H5.1C5.33333 0 5.54167 0.0749999 5.725 0.225C5.90833 0.375 6.01667 0.566667 6.05 0.8L6.7 4.3C6.73333 4.53333 6.72933 4.74567 6.688 4.937C6.646 5.129 6.55 5.3 6.4 5.45L4 7.9C4.7 9.1 5.575 10.225 6.625 11.275C7.675 12.325 8.83333 13.2333 10.1 14L12.45 11.65C12.6 11.5 12.796 11.3873 13.038 11.312C13.2793 11.2373 13.5167 11.2167 13.75 11.25L17.2 11.95C17.4333 12 17.625 12.1123 17.775 12.287C17.925 12.4623 18 12.6667 18 12.9V16.95C18 17.25 17.9 17.5 17.7 17.7C17.5 17.9 17.25 18 16.95 18Z"/>
</symbol>
<symbol id="active_call_icon" viewBox="0 0 24 24">
<path d="M16 9.94922C16 7.99922 15.3207 6.34489 13.962 4.98622C12.604 3.62822 10.95 2.94922 9 2.94922V0.949219C10.25 0.949219 11.421 1.18655 12.513 1.66122C13.6043 2.13655 14.5543 2.77855 15.363 3.58722C16.171 4.39522 16.8127 5.34522 17.288 6.43722C17.7627 7.52855 18 8.69922 18 9.94922H16ZM12 9.94922C12 9.11589 11.7083 8.40755 11.125 7.82422C10.5417 7.24089 9.83333 6.94922 9 6.94922V4.94922C10.3833 4.94922 11.5627 5.43655 12.538 6.41122C13.5127 7.38655 14 8.56589 14 9.94922H12ZM16.95 18.9992C14.8 18.9992 12.7043 18.5199 10.663 17.5612C8.621 16.6032 6.81267 15.3366 5.238 13.7612C3.66267 12.1866 2.396 10.3782 1.438 8.33622C0.479334 6.29489 0 4.19922 0 2.04922C0 1.74922 0.0999999 1.49922 0.3 1.29922C0.5 1.09922 0.75 0.999219 1.05 0.999219H5.1C5.33333 0.999219 5.54167 1.07422 5.725 1.22422C5.90833 1.37422 6.01667 1.56589 6.05 1.79922L6.7 5.29922C6.73333 5.53255 6.72933 5.74488 6.688 5.93622C6.646 6.12822 6.55 6.29922 6.4 6.44922L4 8.89922C4.7 10.0992 5.575 11.2242 6.625 12.2742C7.675 13.3242 8.83333 14.2326 10.1 14.9992L12.45 12.6492C12.6 12.4992 12.796 12.3866 13.038 12.3112C13.2793 12.2366 13.5167 12.2159 13.75 12.2492L17.2 12.9492C17.4333 12.9992 17.625 13.1116 17.775 13.2862C17.925 13.4616 18 13.6659 18 13.8992V17.9492C18 18.2492 17.9 18.4992 17.7 18.6992C17.5 18.8992 17.25 18.9992 16.95 18.9992Z"/>
</symbol>
<symbol id="truck_icon" viewBox="0 0 22 16">
<path fill-rule="evenodd" clip-rule="evenodd" d="M6 16C5.16667 16 4.45833 15.7083 3.875 15.125C3.29167 14.5417 3 13.8333 3 13H2C1.45 13 0.979333 12.8043 0.588 12.413C0.196 12.021 0 11.55 0 11V6H11V2C11 1.45 11.196 0.979333 11.588 0.588C11.9793 0.196 12.45 0 13 0H15H18H18.55C18.9833 0 19.375 0.125 19.725 0.375C20.075 0.625 20.3167 0.958333 20.45 1.375L21.9 5.675C21.9333 5.775 21.9583 5.879 21.975 5.987C21.9917 6.09567 22 6.20833 22 6.325V13H19C19 13.8333 18.7083 14.5417 18.125 15.125C17.5417 15.7083 16.8333 16 16 16C15.1667 16 14.4583 15.7083 13.875 15.125C13.2917 14.5417 13 13.8333 13 13H9C9 13.8333 8.70833 14.5417 8.125 15.125C7.54167 15.7083 6.83333 16 6 16ZM12.9999 6.00001H19.8999L18.5499 2.00001H12.9999V6.00001ZM15.9999 14C16.2832 14 16.5205 13.904 16.7119 13.712C16.9039 13.5207 16.9999 13.2833 16.9999 13C16.9999 12.7167 16.9039 12.4793 16.7119 12.288C16.5205 12.096 16.2832 12 15.9999 12C15.7165 12 15.4792 12.096 15.2879 12.288C15.0959 12.4793 14.9999 12.7167 14.9999 13C14.9999 13.2833 15.0959 13.5207 15.2879 13.712C15.4792 13.904 15.7165 14 15.9999 14ZM6.71188 13.712C6.52054 13.904 6.28321 14 5.99988 14C5.71654 14 5.47921 13.904 5.28788 13.712C5.09588 13.5207 4.99988 13.2833 4.99988 13C4.99988 12.7167 5.09588 12.4793 5.28788 12.288C5.47921 12.096 5.71654 12 5.99988 12C6.28321 12 6.52054 12.096 6.71188 12.288C6.90388 12.4793 6.99988 12.7167 6.99988 13C6.99988 13.2833 6.90388 13.5207 6.71188 13.712Z"/>
</symbol>
</defs></svg>





