<?xml version="1.0" encoding="UTF-8" standalone="no"?>
<!DOCTYPE svg PUBLIC "-//W3C//DTD SVG 1.1//EN"
 "http://www.w3.org/Graphics/SVG/1.1/DTD/svg11.dtd">
<!-- Generated by graphviz version 5.0.0 (20220707.1540)
 -->
<!-- Title: dependencies Pages: 1 -->
<svg width="2180pt" height="253pt"
 viewBox="0.00 0.00 2180.00 252.80" xmlns="http://www.w3.org/2000/svg" xmlns:xlink="http://www.w3.org/1999/xlink">
<g id="graph0" class="graph" transform="scale(1 1) rotate(0) translate(4 248.8)">
<title>dependencies</title>
<polygon fill="white" stroke="transparent" points="-4,4 -4,-248.8 2176,-248.8 2176,4 -4,4"/>
<text text-anchor="middle" x="1086" y="-8.2" font-family="sans-serif" font-size="14.00">dependencies</text>
<g id="clust7" class="cluster">
<title>cluster_SharedAppsUiContactCardModule</title>
<polygon fill="none" stroke="black" stroke-dasharray="1,5" points="8,-32.8 8,-236.8 418,-236.8 418,-32.8 8,-32.8"/>
</g>
<g id="clust8" class="cluster">
<title>cluster_SharedAppsUiContactCardModule_declarations</title>
<polygon fill="none" stroke="black" points="16,-40.8 16,-92.8 184,-92.8 184,-40.8 16,-40.8"/>
</g>
<g id="clust10" class="cluster">
<title>cluster_SharedAppsUiContactCardModule_imports</title>
<polygon fill="none" stroke="black" points="192,-40.8 192,-92.8 410,-92.8 410,-40.8 192,-40.8"/>
</g>
<g id="clust11" class="cluster">
<title>cluster_SharedAppsUiContactCardModule_exports</title>
<polygon fill="none" stroke="black" points="125,-176.8 125,-228.8 297,-228.8 297,-176.8 125,-176.8"/>
</g>
<g id="clust14" class="cluster">
<title>cluster_SharedAppsUiHeaderModule</title>
<polygon fill="none" stroke="black" stroke-dasharray="1,5" points="1740,-32.8 1740,-236.8 1938,-236.8 1938,-32.8 1740,-32.8"/>
</g>
<g id="clust15" class="cluster">
<title>cluster_SharedAppsUiHeaderModule_declarations</title>
<polygon fill="none" stroke="black" points="1770,-40.8 1770,-92.8 1908,-92.8 1908,-40.8 1770,-40.8"/>
</g>
<g id="clust18" class="cluster">
<title>cluster_SharedAppsUiHeaderModule_exports</title>
<polygon fill="none" stroke="black" points="1768,-176.8 1768,-228.8 1910,-228.8 1910,-176.8 1768,-176.8"/>
</g>
<g id="clust21" class="cluster">
<title>cluster_SharedAppsUiOrderCardModule</title>
<polygon fill="none" stroke="black" stroke-dasharray="1,5" points="1946,-32.8 1946,-236.8 2164,-236.8 2164,-32.8 1946,-32.8"/>
</g>
<g id="clust22" class="cluster">
<title>cluster_SharedAppsUiOrderCardModule_declarations</title>
<polygon fill="none" stroke="black" points="1976,-40.8 1976,-92.8 2134,-92.8 2134,-40.8 1976,-40.8"/>
</g>
<g id="clust25" class="cluster">
<title>cluster_SharedAppsUiOrderCardModule_exports</title>
<polygon fill="none" stroke="black" points="1975,-176.8 1975,-228.8 2135,-228.8 2135,-176.8 1975,-176.8"/>
</g>
<g id="clust28" class="cluster">
<title>cluster_SharedAppsUiSubSharedModule</title>
<polygon fill="none" stroke="black" stroke-dasharray="1,5" points="426,-100.8 426,-168.8 1732,-168.8 1732,-100.8 426,-100.8"/>
</g>
<g id="clust29" class="cluster">
<title>cluster_SharedAppsUiSubSharedModule_declarations</title>
<polygon fill="none" stroke="black" points="1090,-108.8 1090,-160.8 1724,-160.8 1724,-108.8 1090,-108.8"/>
</g>
<g id="clust35" class="cluster">
<title>cluster_SharedAppsUiSubSharedModule_exports</title>
<polygon fill="none" stroke="black" points="434,-108.8 434,-160.8 1082,-160.8 1082,-108.8 434,-108.8"/>
</g>
<!-- ContactCardComponent -->
<g id="node1" class="node">
<title>ContactCardComponent</title>
<polygon fill="#ffffb3" stroke="black" points="176.09,-84.8 23.91,-84.8 23.91,-48.8 176.09,-48.8 176.09,-84.8"/>
<text text-anchor="middle" x="100" y="-62.6" font-family="Times,serif" font-size="14.00">ContactCardComponent</text>
</g>
<!-- SharedAppsUiContactCardModule -->
<g id="node2" class="node">
<title>SharedAppsUiContactCardModule</title>
<polygon fill="#8dd3c7" stroke="black" points="317.25,-152.8 314.25,-156.8 293.25,-156.8 290.25,-152.8 104.75,-152.8 104.75,-116.8 317.25,-116.8 317.25,-152.8"/>
<text text-anchor="middle" x="211" y="-130.6" font-family="Times,serif" font-size="14.00">SharedAppsUiContactCardModule</text>
</g>
<!-- ContactCardComponent&#45;&gt;SharedAppsUiContactCardModule -->
<g id="edge1" class="edge">
<title>ContactCardComponent&#45;&gt;SharedAppsUiContactCardModule</title>
<path fill="none" stroke="black" d="M140.34,-85.02C140.34,-85.02 140.34,-106.53 140.34,-106.53"/>
<polygon fill="black" stroke="black" points="136.84,-106.53 140.34,-116.53 143.84,-106.53 136.84,-106.53"/>
</g>
<!-- ContactCardComponent  -->
<g id="node4" class="node">
<title>ContactCardComponent </title>
<polygon fill="#fb8072" stroke="black" points="288.59,-220.8 133.41,-220.8 133.41,-184.8 288.59,-184.8 288.59,-220.8"/>
<text text-anchor="middle" x="211" y="-198.6" font-family="Times,serif" font-size="14.00">ContactCardComponent </text>
</g>
<!-- SharedAppsUiContactCardModule&#45;&gt;ContactCardComponent  -->
<g id="edge3" class="edge">
<title>SharedAppsUiContactCardModule&#45;&gt;ContactCardComponent </title>
<path fill="none" stroke="black" stroke-dasharray="5,2" d="M211,-153.02C211,-153.02 211,-174.53 211,-174.53"/>
<polygon fill="black" stroke="black" points="207.5,-174.53 211,-184.53 214.5,-174.53 207.5,-174.53"/>
</g>
<!-- SharedAppsUiSubSharedModule -->
<g id="node3" class="node">
<title>SharedAppsUiSubSharedModule</title>
<polygon fill="#8dd3c7" stroke="black" points="402.15,-84.8 399.15,-88.8 378.15,-88.8 375.15,-84.8 199.85,-84.8 199.85,-48.8 402.15,-48.8 402.15,-84.8"/>
<text text-anchor="middle" x="301" y="-62.6" font-family="Times,serif" font-size="14.00">SharedAppsUiSubSharedModule</text>
</g>
<!-- SharedAppsUiSubSharedModule&#45;&gt;SharedAppsUiContactCardModule -->
<g id="edge2" class="edge">
<title>SharedAppsUiSubSharedModule&#45;&gt;SharedAppsUiContactCardModule</title>
<path fill="none" stroke="black" d="M258.52,-85.02C258.52,-85.02 258.52,-106.53 258.52,-106.53"/>
<polygon fill="black" stroke="black" points="255.02,-106.53 258.52,-116.53 262.02,-106.53 255.02,-106.53"/>
</g>
<!-- SharedAppsUiHeaderModule -->
<g id="node6" class="node">
<title>SharedAppsUiHeaderModule</title>
<polygon fill="#8dd3c7" stroke="black" points="1930.4,-152.8 1927.4,-156.8 1906.4,-156.8 1903.4,-152.8 1747.6,-152.8 1747.6,-116.8 1930.4,-116.8 1930.4,-152.8"/>
<text text-anchor="middle" x="1839" y="-130.6" font-family="Times,serif" font-size="14.00">SharedAppsUiHeaderModule</text>
</g>
<!-- SharedAppsUiSubSharedModule&#45;&gt;SharedAppsUiHeaderModule -->
<g id="edge5" class="edge">
<title>SharedAppsUiSubSharedModule&#45;&gt;SharedAppsUiHeaderModule</title>
<path fill="none" stroke="black" d="M402.35,-52.8C733.58,-52.8 1762.96,-52.8 1762.96,-52.8 1762.96,-52.8 1762.96,-106.6 1762.96,-106.6"/>
<polygon fill="black" stroke="black" points="1759.46,-106.6 1762.96,-116.6 1766.46,-106.6 1759.46,-106.6"/>
</g>
<!-- SkeletonComponent  -->
<g id="node15" class="node">
<title>SkeletonComponent </title>
<polygon fill="#fb8072" stroke="black" points="1073.82,-152.8 940.18,-152.8 940.18,-116.8 1073.82,-116.8 1073.82,-152.8"/>
<text text-anchor="middle" x="1007" y="-130.6" font-family="Times,serif" font-size="14.00">SkeletonComponent </text>
</g>
<!-- SharedAppsUiSubSharedModule&#45;&gt;SkeletonComponent  -->
<g id="edge13" class="edge">
<title>SharedAppsUiSubSharedModule&#45;&gt;SkeletonComponent </title>
<path fill="none" stroke="black" stroke-dasharray="5,2" d="M402.15,-72.8C597.37,-72.8 1007,-72.8 1007,-72.8 1007,-72.8 1007,-106.53 1007,-106.53"/>
<polygon fill="black" stroke="black" points="1003.5,-106.53 1007,-116.53 1010.5,-106.53 1003.5,-106.53"/>
</g>
<!-- StatusTrackerComponent  -->
<g id="node16" class="node">
<title>StatusTrackerComponent </title>
<polygon fill="#fb8072" stroke="black" points="922.08,-152.8 759.92,-152.8 759.92,-116.8 922.08,-116.8 922.08,-152.8"/>
<text text-anchor="middle" x="841" y="-130.6" font-family="Times,serif" font-size="14.00">StatusTrackerComponent </text>
</g>
<!-- SharedAppsUiSubSharedModule&#45;&gt;StatusTrackerComponent  -->
<g id="edge14" class="edge">
<title>SharedAppsUiSubSharedModule&#45;&gt;StatusTrackerComponent </title>
<path fill="none" stroke="black" stroke-dasharray="5,2" d="M402.25,-76.8C558.61,-76.8 841,-76.8 841,-76.8 841,-76.8 841,-106.77 841,-106.77"/>
<polygon fill="black" stroke="black" points="837.5,-106.77 841,-116.77 844.5,-106.77 837.5,-106.77"/>
</g>
<!-- SvgIconComponent  -->
<g id="node17" class="node">
<title>SvgIconComponent </title>
<polygon fill="#fb8072" stroke="black" points="741.99,-152.8 610.01,-152.8 610.01,-116.8 741.99,-116.8 741.99,-152.8"/>
<text text-anchor="middle" x="676" y="-130.6" font-family="Times,serif" font-size="14.00">SvgIconComponent </text>
</g>
<!-- SharedAppsUiSubSharedModule&#45;&gt;SvgIconComponent  -->
<g id="edge15" class="edge">
<title>SharedAppsUiSubSharedModule&#45;&gt;SvgIconComponent </title>
<path fill="none" stroke="black" stroke-dasharray="5,2" d="M402.48,-80.8C513.54,-80.8 676,-80.8 676,-80.8 676,-80.8 676,-106.52 676,-106.52"/>
<polygon fill="black" stroke="black" points="672.5,-106.52 676,-116.52 679.5,-106.52 672.5,-106.52"/>
</g>
<!-- UserInitialsComponent  -->
<g id="node18" class="node">
<title>UserInitialsComponent </title>
<polygon fill="#fb8072" stroke="black" points="592.15,-152.8 441.85,-152.8 441.85,-116.8 592.15,-116.8 592.15,-152.8"/>
<text text-anchor="middle" x="517" y="-130.6" font-family="Times,serif" font-size="14.00">UserInitialsComponent </text>
</g>
<!-- SharedAppsUiSubSharedModule&#45;&gt;UserInitialsComponent  -->
<g id="edge16" class="edge">
<title>SharedAppsUiSubSharedModule&#45;&gt;UserInitialsComponent </title>
<path fill="none" stroke="black" stroke-dasharray="5,2" d="M359.85,-85.02C359.85,-105.17 359.85,-134.8 359.85,-134.8 359.85,-134.8 431.65,-134.8 431.65,-134.8"/>
<polygon fill="black" stroke="black" points="431.65,-138.3 441.65,-134.8 431.65,-131.3 431.65,-138.3"/>
</g>
<!-- HeaderComponent -->
<g id="node5" class="node">
<title>HeaderComponent</title>
<polygon fill="#ffffb3" stroke="black" points="1899.75,-84.8 1778.25,-84.8 1778.25,-48.8 1899.75,-48.8 1899.75,-84.8"/>
<text text-anchor="middle" x="1839" y="-62.6" font-family="Times,serif" font-size="14.00">HeaderComponent</text>
</g>
<!-- HeaderComponent&#45;&gt;SharedAppsUiHeaderModule -->
<g id="edge4" class="edge">
<title>HeaderComponent&#45;&gt;SharedAppsUiHeaderModule</title>
<path fill="none" stroke="black" d="M1839,-85.02C1839,-85.02 1839,-106.53 1839,-106.53"/>
<polygon fill="black" stroke="black" points="1835.5,-106.53 1839,-116.53 1842.5,-106.53 1835.5,-106.53"/>
</g>
<!-- HeaderComponent  -->
<g id="node7" class="node">
<title>HeaderComponent </title>
<polygon fill="#fb8072" stroke="black" points="1901.75,-220.8 1776.25,-220.8 1776.25,-184.8 1901.75,-184.8 1901.75,-220.8"/>
<text text-anchor="middle" x="1839" y="-198.6" font-family="Times,serif" font-size="14.00">HeaderComponent </text>
</g>
<!-- SharedAppsUiHeaderModule&#45;&gt;HeaderComponent  -->
<g id="edge6" class="edge">
<title>SharedAppsUiHeaderModule&#45;&gt;HeaderComponent </title>
<path fill="none" stroke="black" stroke-dasharray="5,2" d="M1839,-153.02C1839,-153.02 1839,-174.53 1839,-174.53"/>
<polygon fill="black" stroke="black" points="1835.5,-174.53 1839,-184.53 1842.5,-174.53 1835.5,-174.53"/>
</g>
<!-- OrderCardComponent -->
<g id="node8" class="node">
<title>OrderCardComponent</title>
<polygon fill="#ffffb3" stroke="black" points="2125.69,-84.8 1984.31,-84.8 1984.31,-48.8 2125.69,-48.8 2125.69,-84.8"/>
<text text-anchor="middle" x="2055" y="-62.6" font-family="Times,serif" font-size="14.00">OrderCardComponent</text>
</g>
<!-- SharedAppsUiOrderCardModule -->
<g id="node9" class="node">
<title>SharedAppsUiOrderCardModule</title>
<polygon fill="#8dd3c7" stroke="black" points="2155.85,-152.8 2152.85,-156.8 2131.85,-156.8 2128.85,-152.8 1954.15,-152.8 1954.15,-116.8 2155.85,-116.8 2155.85,-152.8"/>
<text text-anchor="middle" x="2055" y="-130.6" font-family="Times,serif" font-size="14.00">SharedAppsUiOrderCardModule</text>
</g>
<!-- OrderCardComponent&#45;&gt;SharedAppsUiOrderCardModule -->
<g id="edge7" class="edge">
<title>OrderCardComponent&#45;&gt;SharedAppsUiOrderCardModule</title>
<path fill="none" stroke="black" d="M2055,-85.02C2055,-85.02 2055,-106.53 2055,-106.53"/>
<polygon fill="black" stroke="black" points="2051.5,-106.53 2055,-116.53 2058.5,-106.53 2051.5,-106.53"/>
</g>
<!-- OrderCardComponent  -->
<g id="node10" class="node">
<title>OrderCardComponent </title>
<polygon fill="#fb8072" stroke="black" points="2127.19,-220.8 1982.81,-220.8 1982.81,-184.8 2127.19,-184.8 2127.19,-220.8"/>
<text text-anchor="middle" x="2055" y="-198.6" font-family="Times,serif" font-size="14.00">OrderCardComponent </text>
</g>
<!-- SharedAppsUiOrderCardModule&#45;&gt;OrderCardComponent  -->
<g id="edge8" class="edge">
<title>SharedAppsUiOrderCardModule&#45;&gt;OrderCardComponent </title>
<path fill="none" stroke="black" stroke-dasharray="5,2" d="M2055,-153.02C2055,-153.02 2055,-174.53 2055,-174.53"/>
<polygon fill="black" stroke="black" points="2051.5,-174.53 2055,-184.53 2058.5,-174.53 2051.5,-174.53"/>
</g>
<!-- SkeletonComponent -->
<g id="node11" class="node">
<title>SkeletonComponent</title>
<polygon fill="#ffffb3" stroke="black" points="1716.32,-152.8 1585.68,-152.8 1585.68,-116.8 1716.32,-116.8 1716.32,-152.8"/>
<text text-anchor="middle" x="1651" y="-130.6" font-family="Times,serif" font-size="14.00">SkeletonComponent</text>
</g>
<!-- SkeletonComponent&#45;&gt;SharedAppsUiSubSharedModule -->
<g id="edge9" class="edge">
<title>SkeletonComponent&#45;&gt;SharedAppsUiSubSharedModule</title>
<path fill="none" stroke="black" d="M1651,-116.71C1651,-93.67 1651,-56.8 1651,-56.8 1651,-56.8 412.19,-56.8 412.19,-56.8"/>
<polygon fill="black" stroke="black" points="412.19,-53.3 402.19,-56.8 412.19,-60.3 412.19,-53.3"/>
</g>
<!-- StatusTrackerComponent -->
<g id="node12" class="node">
<title>StatusTrackerComponent</title>
<polygon fill="#ffffb3" stroke="black" points="1567.58,-152.8 1408.42,-152.8 1408.42,-116.8 1567.58,-116.8 1567.58,-152.8"/>
<text text-anchor="middle" x="1488" y="-130.6" font-family="Times,serif" font-size="14.00">StatusTrackerComponent</text>
</g>
<!-- StatusTrackerComponent&#45;&gt;SharedAppsUiSubSharedModule -->
<g id="edge10" class="edge">
<title>StatusTrackerComponent&#45;&gt;SharedAppsUiSubSharedModule</title>
<path fill="none" stroke="black" d="M1488,-116.51C1488,-94.59 1488,-60.8 1488,-60.8 1488,-60.8 412.2,-60.8 412.2,-60.8"/>
<polygon fill="black" stroke="black" points="412.2,-57.3 402.2,-60.8 412.2,-64.3 412.2,-57.3"/>
</g>
<!-- SvgIconComponent -->
<g id="node13" class="node">
<title>SvgIconComponent</title>
<polygon fill="#ffffb3" stroke="black" points="1389.99,-152.8 1262.01,-152.8 1262.01,-116.8 1389.99,-116.8 1389.99,-152.8"/>
<text text-anchor="middle" x="1326" y="-130.6" font-family="Times,serif" font-size="14.00">SvgIconComponent</text>
</g>
<!-- SvgIconComponent&#45;&gt;SharedAppsUiSubSharedModule -->
<g id="edge11" class="edge">
<title>SvgIconComponent&#45;&gt;SharedAppsUiSubSharedModule</title>
<path fill="none" stroke="black" d="M1326,-116.77C1326,-96.03 1326,-64.8 1326,-64.8 1326,-64.8 412.56,-64.8 412.56,-64.8"/>
<polygon fill="black" stroke="black" points="412.56,-61.3 402.56,-64.8 412.56,-68.3 412.56,-61.3"/>
</g>
<!-- UserInitialsComponent -->
<g id="node14" class="node">
<title>UserInitialsComponent</title>
<polygon fill="#ffffb3" stroke="black" points="1244.15,-152.8 1097.85,-152.8 1097.85,-116.8 1244.15,-116.8 1244.15,-152.8"/>
<text text-anchor="middle" x="1171" y="-130.6" font-family="Times,serif" font-size="14.00">UserInitialsComponent</text>
</g>
<!-- UserInitialsComponent&#45;&gt;SharedAppsUiSubSharedModule -->
<g id="edge12" class="edge">
<title>UserInitialsComponent&#45;&gt;SharedAppsUiSubSharedModule</title>
<path fill="none" stroke="black" d="M1171,-116.77C1171,-97.22 1171,-68.8 1171,-68.8 1171,-68.8 412.5,-68.8 412.5,-68.8"/>
<polygon fill="black" stroke="black" points="412.5,-65.3 402.5,-68.8 412.5,-72.3 412.5,-65.3"/>
</g>
</g>
</svg>
