<?xml version="1.0" encoding="UTF-8" standalone="no"?>
<!DOCTYPE svg PUBLIC "-//W3C//DTD SVG 1.1//EN"
 "http://www.w3.org/Graphics/SVG/1.1/DTD/svg11.dtd">
<!-- Generated by graphviz version 5.0.0 (20220707.1540)
 -->
<!-- Title: dependencies Pages: 1 -->
<svg width="434pt" height="247pt"
 viewBox="0.00 0.00 434.00 246.80" xmlns="http://www.w3.org/2000/svg" xmlns:xlink="http://www.w3.org/1999/xlink">
<g id="graph0" class="graph" transform="scale(1 1) rotate(0) translate(4 242.8)">
<title>dependencies</title>
<polygon fill="white" stroke="transparent" points="-4,4 -4,-242.8 430,-242.8 430,4 -4,4"/>
<text text-anchor="middle" x="213" y="-8.2" font-family="sans-serif" font-size="14.00">dependencies</text>
<g id="clust1" class="cluster">
<title>cluster_SharedAppsUiContactCardModule</title>
<polygon fill="none" stroke="black" stroke-dasharray="1,5" points="8,-32.8 8,-230.8 418,-230.8 418,-32.8 8,-32.8"/>
</g>
<g id="clust2" class="cluster">
<title>cluster_SharedAppsUiContactCardModule_declarations</title>
<polygon fill="none" stroke="black" points="242,-40.8 242,-92.8 410,-92.8 410,-40.8 242,-40.8"/>
</g>
<g id="clust5" class="cluster">
<title>cluster_SharedAppsUiContactCardModule_exports</title>
<polygon fill="none" stroke="black" points="128,-170.8 128,-222.8 300,-222.8 300,-170.8 128,-170.8"/>
</g>
<g id="clust4" class="cluster">
<title>cluster_SharedAppsUiContactCardModule_imports</title>
<polygon fill="none" stroke="black" points="16,-40.8 16,-92.8 234,-92.8 234,-40.8 16,-40.8"/>
</g>
<!-- ContactCardComponent -->
<g id="node1" class="node">
<title>ContactCardComponent</title>
<polygon fill="#ffffb3" stroke="black" points="402.09,-84.8 249.91,-84.8 249.91,-48.8 402.09,-48.8 402.09,-84.8"/>
<text text-anchor="middle" x="326" y="-62.6" font-family="Times,serif" font-size="14.00">ContactCardComponent</text>
</g>
<!-- SharedAppsUiContactCardModule -->
<g id="node2" class="node">
<title>SharedAppsUiContactCardModule</title>
<polygon fill="#8dd3c7" stroke="black" points="320.25,-149.8 317.25,-153.8 296.25,-153.8 293.25,-149.8 107.75,-149.8 107.75,-113.8 320.25,-113.8 320.25,-149.8"/>
<text text-anchor="middle" x="214" y="-127.6" font-family="Times,serif" font-size="14.00">SharedAppsUiContactCardModule</text>
</g>
<!-- ContactCardComponent&#45;&gt;SharedAppsUiContactCardModule -->
<g id="edge1" class="edge">
<title>ContactCardComponent&#45;&gt;SharedAppsUiContactCardModule</title>
<path fill="none" stroke="black" d="M285.16,-84.91C285.16,-84.91 285.16,-103.79 285.16,-103.79"/>
<polygon fill="black" stroke="black" points="281.66,-103.79 285.16,-113.79 288.66,-103.79 281.66,-103.79"/>
</g>
<!-- ContactCardComponent  -->
<g id="node4" class="node">
<title>ContactCardComponent </title>
<polygon fill="#fb8072" stroke="black" points="291.59,-214.8 136.41,-214.8 136.41,-178.8 291.59,-178.8 291.59,-214.8"/>
<text text-anchor="middle" x="214" y="-192.6" font-family="Times,serif" font-size="14.00">ContactCardComponent </text>
</g>
<!-- SharedAppsUiContactCardModule&#45;&gt;ContactCardComponent  -->
<g id="edge3" class="edge">
<title>SharedAppsUiContactCardModule&#45;&gt;ContactCardComponent </title>
<path fill="none" stroke="black" stroke-dasharray="5,2" d="M214,-149.91C214,-149.91 214,-168.79 214,-168.79"/>
<polygon fill="black" stroke="black" points="210.5,-168.79 214,-178.79 217.5,-168.79 210.5,-168.79"/>
</g>
<!-- SharedAppsUiSubSharedModule -->
<g id="node3" class="node">
<title>SharedAppsUiSubSharedModule</title>
<polygon fill="#8dd3c7" stroke="black" points="226.15,-84.8 223.15,-88.8 202.15,-88.8 199.15,-84.8 23.85,-84.8 23.85,-48.8 226.15,-48.8 226.15,-84.8"/>
<text text-anchor="middle" x="125" y="-62.6" font-family="Times,serif" font-size="14.00">SharedAppsUiSubSharedModule</text>
</g>
<!-- SharedAppsUiSubSharedModule&#45;&gt;SharedAppsUiContactCardModule -->
<g id="edge2" class="edge">
<title>SharedAppsUiSubSharedModule&#45;&gt;SharedAppsUiContactCardModule</title>
<path fill="none" stroke="black" d="M166.98,-84.91C166.98,-84.91 166.98,-103.79 166.98,-103.79"/>
<polygon fill="black" stroke="black" points="163.48,-103.79 166.98,-113.79 170.48,-103.79 163.48,-103.79"/>
</g>
</g>
</svg>
