<?xml version="1.0" encoding="UTF-8" standalone="no"?>
<!DOCTYPE svg PUBLIC "-//W3C//DTD SVG 1.1//EN"
 "http://www.w3.org/Graphics/SVG/1.1/DTD/svg11.dtd">
<!-- Generated by graphviz version 5.0.0 (20220707.1540)
 -->
<!-- Title: dependencies Pages: 1 -->
<svg width="242pt" height="247pt"
 viewBox="0.00 0.00 242.00 246.80" xmlns="http://www.w3.org/2000/svg" xmlns:xlink="http://www.w3.org/1999/xlink">
<g id="graph0" class="graph" transform="scale(1 1) rotate(0) translate(4 242.8)">
<title>dependencies</title>
<polygon fill="white" stroke="transparent" points="-4,4 -4,-242.8 238,-242.8 238,4 -4,4"/>
<text text-anchor="middle" x="117" y="-8.2" font-family="sans-serif" font-size="14.00">dependencies</text>
<g id="clust1" class="cluster">
<title>cluster_SharedAppsUiOrderCardModule</title>
<polygon fill="none" stroke="black" stroke-dasharray="1,5" points="8,-32.8 8,-230.8 226,-230.8 226,-32.8 8,-32.8"/>
</g>
<g id="clust5" class="cluster">
<title>cluster_SharedAppsUiOrderCardModule_exports</title>
<polygon fill="none" stroke="black" points="37,-170.8 37,-222.8 197,-222.8 197,-170.8 37,-170.8"/>
</g>
<g id="clust2" class="cluster">
<title>cluster_SharedAppsUiOrderCardModule_declarations</title>
<polygon fill="none" stroke="black" points="38,-40.8 38,-92.8 196,-92.8 196,-40.8 38,-40.8"/>
</g>
<!-- OrderCardComponent -->
<g id="node1" class="node">
<title>OrderCardComponent</title>
<polygon fill="#ffffb3" stroke="black" points="187.69,-84.8 46.31,-84.8 46.31,-48.8 187.69,-48.8 187.69,-84.8"/>
<text text-anchor="middle" x="117" y="-62.6" font-family="Times,serif" font-size="14.00">OrderCardComponent</text>
</g>
<!-- SharedAppsUiOrderCardModule -->
<g id="node2" class="node">
<title>SharedAppsUiOrderCardModule</title>
<polygon fill="#8dd3c7" stroke="black" points="217.85,-149.8 214.85,-153.8 193.85,-153.8 190.85,-149.8 16.15,-149.8 16.15,-113.8 217.85,-113.8 217.85,-149.8"/>
<text text-anchor="middle" x="117" y="-127.6" font-family="Times,serif" font-size="14.00">SharedAppsUiOrderCardModule</text>
</g>
<!-- OrderCardComponent&#45;&gt;SharedAppsUiOrderCardModule -->
<g id="edge1" class="edge">
<title>OrderCardComponent&#45;&gt;SharedAppsUiOrderCardModule</title>
<path fill="none" stroke="black" d="M117,-84.91C117,-84.91 117,-103.79 117,-103.79"/>
<polygon fill="black" stroke="black" points="113.5,-103.79 117,-113.79 120.5,-103.79 113.5,-103.79"/>
</g>
<!-- OrderCardComponent  -->
<g id="node3" class="node">
<title>OrderCardComponent </title>
<polygon fill="#fb8072" stroke="black" points="189.19,-214.8 44.81,-214.8 44.81,-178.8 189.19,-178.8 189.19,-214.8"/>
<text text-anchor="middle" x="117" y="-192.6" font-family="Times,serif" font-size="14.00">OrderCardComponent </text>
</g>
<!-- SharedAppsUiOrderCardModule&#45;&gt;OrderCardComponent  -->
<g id="edge2" class="edge">
<title>SharedAppsUiOrderCardModule&#45;&gt;OrderCardComponent </title>
<path fill="none" stroke="black" stroke-dasharray="5,2" d="M117,-149.91C117,-149.91 117,-168.79 117,-168.79"/>
<polygon fill="black" stroke="black" points="113.5,-168.79 117,-178.79 120.5,-168.79 113.5,-168.79"/>
</g>
</g>
</svg>
